<svg xmlns="http://www.w3.org/2000/svg" viewBox="0 0 592.31 52.86"><defs><style>.cls-1{fill:#fff;}.cls-2{opacity:0;}</style></defs><title>RWT_Horizontal_8</title><g id="Layer_2" data-name="Layer 2"><g id="Layer_2-2" data-name="Layer 2"><path class="cls-1" d="M113.81,28.79h5.9a6,6,0,0,0,6.35-6.1,6,6,0,0,0-6.35-6.05H112v29.9h-5v-35h12.75c7.6,0,11.4,5.6,11.4,11.15a10.54,10.54,0,0,1-9.05,10.7l11.05,13.15h-6.55L113.81,31.19Z"/><path class="cls-1" d="M149.16,16.39a17.69,17.69,0,0,1,25.25,0,18,18,0,0,1,0,25.3,17.69,17.69,0,0,1-25.25,0,18,18,0,0,1,0-25.3ZM170.81,20a12.87,12.87,0,0,0-9.05-3.8,12.55,12.55,0,0,0-8.95,3.8,12.8,12.8,0,0,0,0,18.1,12.55,12.55,0,0,0,8.95,3.8A12.87,12.87,0,0,0,170.81,20Z"/><path class="cls-1" d="M193,16.59a16.88,16.88,0,0,1,12.1-5.2c8,0,14.3,5,16.3,12.9h-5a11.39,11.39,0,0,0-11.3-7.9,11.91,11.91,0,0,0-8.6,3.75,12.93,12.93,0,0,0,0,17.9,12,12,0,0,0,20.2-4.6h4.95c-2,8-8.4,13.35-16.55,13.35a16.68,16.68,0,0,1-12.1-5.2,18.12,18.12,0,0,1,0-25Z"/><path class="cls-1" d="M241,11.59v35h-5V11.59Zm.95,16.2,12.2-16.2h6.35L247.11,28.94l14.75,17.6h-6.6l-13.35-16.2Z"/><path class="cls-1" d="M296.61,29.89c-2,5.7-4.15,11.65-5.95,17h-3.75L275.26,11.59h5.25l8.35,25.25,5.75-16.35h4.05l5.7,16.3c2.75-8.35,5.8-17.25,8.4-25.2h5.3L306.41,46.84h-3.75Z"/><path class="cls-1" d="M352.61,16.59h-6.5v24.9h6.5v5H334.56v-5h6.5V16.59h-6.5v-5h18.05Z"/><path class="cls-1" d="M378,46.69v-30h-10.6v-5.1h26.2v5.1H383.06V46.69Z"/><path class="cls-1" d="M414,26.34h14.8V11.59h5.1v35h-5.1V31.34H414v15.2h-5V11.59h5Z"/><path class="cls-1" d="M459,46.69v-30h-10.6v-5.1h26.2v5.1H464V46.69Z"/><path class="cls-1" d="M494.91,26.34h14.8V11.59h5.1v35h-5.1V31.34h-14.8v15.2h-5.05V11.59h5.05Z"/><path class="cls-1" d="M550.36,16.59h-6.5v24.9h6.5v5H532.31v-5h6.5V16.59h-6.5v-5h18.05Z"/><path class="cls-1" d="M586.36,20.59c-.7-3.15-4.1-4.5-7.15-4.45-2.35.05-5,.85-6.35,2.65A4.58,4.58,0,0,0,572,22c.25,3.6,4.2,4.05,8,4.4,4.8.6,10.75,1.85,12.1,7.45a12.44,12.44,0,0,1,.25,2.3c0,6.75-6.7,10.65-13,10.65-5.4,0-11.95-3.2-12.6-9.45l-.05-1,5.1-.1,0,.75v-.2c.35,3.25,4.3,5,7.55,5,3.75,0,7.85-2.1,7.85-5.7a5.6,5.6,0,0,0-.15-1.2c-.6-2.65-4.2-3.1-7.7-3.45-5.45-.55-11.85-1.75-12.4-9v0a9.47,9.47,0,0,1,1.9-6.65c2.35-3.05,6.55-4.65,10.6-4.65,5.4,0,11,2.8,11.9,9.2Z"/><g class="cls-2"><path class="cls-1" d="M43.07,3.45c-12.75,0-23.62,7.65-27.57,18.27h.16a14.91,14.91,0,0,1,6.85,1.67,14.94,14.94,0,0,1,6.85-1.67,15.16,15.16,0,0,1,13,7.37h1.5a15.13,15.13,0,0,1,13-7.37,14.91,14.91,0,0,1,6.85,1.67,14.94,14.94,0,0,1,6.85-1.67h.16C66.68,11.1,55.82,3.45,43.07,3.45Z"/><path class="cls-1" d="M44.1,29.58H42l-.14-.24a14.56,14.56,0,0,0-12.53-7.13,14.29,14.29,0,0,0-6.62,1.61l-.23.12-.23-.12a14.29,14.29,0,0,0-6.62-1.61h-.72l.1-.67C19.17,10.42,30.44,3,43.07,3S67,10.42,71.1,21.54l.25.68h-.88a14.29,14.29,0,0,0-6.62,1.61l-.23.12-.23-.12a14.29,14.29,0,0,0-6.62-1.61,14.54,14.54,0,0,0-12.52,7.13Zm-1.5-1h.94a15.53,15.53,0,0,1,13.23-7.37,15.23,15.23,0,0,1,6.85,1.61,15.32,15.32,0,0,1,6.28-1.6C65.72,10.86,55,4,43.07,4S20.42,10.86,16.23,21.22a15.32,15.32,0,0,1,6.28,1.6,15.26,15.26,0,0,1,6.85-1.61A15.54,15.54,0,0,1,42.6,28.58Z"/></g><path class="cls-1" d="M15.5,21.72C19.45,11.1,30.32,3.45,43.07,3.45S66.68,11.1,70.63,21.72a14.93,14.93,0,0,1,3.22.38C69.94,9.63,57.62.5,43.07.5S16.2,9.63,12.29,22.1A14.84,14.84,0,0,1,15.5,21.72Z"/><path class="cls-1" d="M74.58,22.79l-.85-.2a14.05,14.05,0,0,0-3.1-.37h-.35l-.12-.32C66.17,11.16,55.28,4,43.07,4S20,11.16,16,21.89l-.12.32h-.34a14.14,14.14,0,0,0-3.11.37l-.85.2.26-.84C15.86,9,28.71,0,43.07,0s27.2,9,31.25,22ZM43.07,1C29.45,1,17.23,9.36,13,21.44a15.07,15.07,0,0,1,2.13-.21C19.39,10.28,30.56,3,43.07,3S66.75,10.28,71,21.23a15.07,15.07,0,0,1,2.12.21C68.91,9.36,56.69,1,43.07,1Z"/><path class="cls-1" d="M43.07,30.49a11.86,11.86,0,0,1,.75-1.41h-1.5A15.72,15.72,0,0,1,43.07,30.49Z"/><path class="cls-1" d="M43.07,31.67l-.45-1c-.23-.47-.47-.93-.73-1.36l-.46-.76H44.7l-.45.76a12.62,12.62,0,0,0-.73,1.36Z"/><g class="cls-2"><path class="cls-1" d="M3.42,37A12.32,12.32,0,0,0,15.66,49.41a12,12,0,0,0,3.95-.66,15.39,15.39,0,0,1,0-23.43A12.23,12.23,0,0,0,3.42,37Z"/><path class="cls-1" d="M15.66,49.91a12.88,12.88,0,0,1,0-25.75,12.53,12.53,0,0,1,4.11.69l.83.29-.67.56a14.9,14.9,0,0,0,0,22.67l.67.57-.83.28A12.53,12.53,0,0,1,15.66,49.91Zm0-24.75a11.88,11.88,0,0,0,0,23.75,11.7,11.7,0,0,0,2.95-.38,15.91,15.91,0,0,1,0-23A11.7,11.7,0,0,0,15.66,25.16Z"/></g><path class="cls-1" d="M19.61,48.75a12,12,0,0,1-3.95.66,12.38,12.38,0,1,1,3.95-24.09,15,15,0,0,1,2.9-1.94,14.91,14.91,0,0,0-6.85-1.67H15.5a14.84,14.84,0,0,0-3.21.38,15.34,15.34,0,0,0,3.37,30.26,14.9,14.9,0,0,0,6.85-1.66A15,15,0,0,1,19.61,48.75Z"/><path class="cls-1" d="M15.66,52.86a15.84,15.84,0,0,1-3.48-31.25,15.37,15.37,0,0,1,3.32-.39h.16a15.32,15.32,0,0,1,7.08,1.72l.87.45-.87.44a14.82,14.82,0,0,0-2.81,1.88l-.22.19-.27-.09a11.59,11.59,0,0,0-3.78-.64,11.88,11.88,0,0,0,0,23.75,11.58,11.58,0,0,0,3.78-.63l.27-.1.22.19a14.82,14.82,0,0,0,2.81,1.88l.87.45-.87.44A15.29,15.29,0,0,1,15.66,52.86ZM15.5,21.72v.5a14.14,14.14,0,0,0-3.11.37,14.84,14.84,0,0,0,3.26,29.27,14.19,14.19,0,0,0,5.76-1.2,15.07,15.07,0,0,1-1.92-1.35,12.52,12.52,0,0,1-3.84.6,12.88,12.88,0,0,1,0-25.75,12.57,12.57,0,0,1,3.84.6,15.07,15.07,0,0,1,1.92-1.35,14.4,14.4,0,0,0-5.76-1.2Z"/><g class="cls-2"><ellipse class="cls-1" cx="29.36" cy="37.04" rx="12.25" ry="12.38"/><path class="cls-1" d="M29.36,49.91A12.88,12.88,0,1,1,42.11,37,12.82,12.82,0,0,1,29.36,49.91Zm0-24.75A11.88,11.88,0,1,0,41.11,37,11.83,11.83,0,0,0,29.36,25.16Z"/></g><path class="cls-1" d="M41.61,37A12.25,12.25,0,1,1,29.36,24.66,12.32,12.32,0,0,1,41.61,37a15.26,15.26,0,0,1,1.46-6.55,15.72,15.72,0,0,0-.75-1.41,15.16,15.16,0,0,0-13-7.37,15.14,15.14,0,0,0-9.75,3.61,15.39,15.39,0,0,0,0,23.43,15.05,15.05,0,0,0,23.46-5.16A15.29,15.29,0,0,1,41.61,37Z"/><path class="cls-1" d="M29.36,52.86a15.35,15.35,0,0,1-7.08-1.72,15.87,15.87,0,0,1,0-28.21,15.35,15.35,0,0,1,7.08-1.72,15.56,15.56,0,0,1,13.39,7.61c.27.47.53.95.77,1.46l.1.21-.1.21a14.94,14.94,0,0,0,0,12.67l.1.21-.1.22A15.75,15.75,0,0,1,29.36,52.86Zm0-30.65a14.29,14.29,0,0,0-6.62,1.61,14.87,14.87,0,0,0,0,26.43,14.29,14.29,0,0,0,6.62,1.61,14.74,14.74,0,0,0,13.16-8.28,15.5,15.5,0,0,1-1-2.78,12.88,12.88,0,1,1,0-7.52,15.87,15.87,0,0,1,1-2.79c-.2-.4-.41-.78-.63-1.15A14.56,14.56,0,0,0,29.36,22.21Zm0,2.95A11.88,11.88,0,1,0,41.11,37,11.83,11.83,0,0,0,29.36,25.16Z"/><g class="cls-2"><path class="cls-1" d="M71.93,37a15.35,15.35,0,0,1-5.4,11.71,12,12,0,0,0,3.94.66,12.38,12.38,0,1,0-3.94-24.09A15.37,15.37,0,0,1,71.93,37Z"/><path class="cls-1" d="M70.47,49.91a12.47,12.47,0,0,1-4.1-.69l-.83-.28.67-.57a14.92,14.92,0,0,0,0-22.67l-.67-.56.83-.29a12.47,12.47,0,0,1,4.1-.69,12.88,12.88,0,0,1,0,25.75Zm-3-1.38a11.88,11.88,0,1,0,0-23,15.91,15.91,0,0,1,0,23Z"/></g><path class="cls-1" d="M73.85,22.1a14.93,14.93,0,0,0-3.22-.38h-.16a14.94,14.94,0,0,0-6.85,1.67,15.05,15.05,0,0,1,2.91,1.94,12.35,12.35,0,1,1,3.94,24.09,12,12,0,0,1-3.94-.66,15.1,15.1,0,0,1-2.91,2,14.94,14.94,0,0,0,6.85,1.66A15.34,15.34,0,0,0,73.85,22.1Z"/><path class="cls-1" d="M70.47,52.86a15.35,15.35,0,0,1-7.08-1.72l-.86-.44.86-.45a14.43,14.43,0,0,0,2.82-1.88l.21-.19.27.1a11.62,11.62,0,0,0,3.78.63,11.88,11.88,0,0,0,0-23.75,11.68,11.68,0,0,0-3.78.64l-.27.09-.21-.19a14.89,14.89,0,0,0-2.82-1.88l-.86-.44.86-.45a15.35,15.35,0,0,1,7.08-1.72h.17a15.45,15.45,0,0,1,3.32.39A15.93,15.93,0,0,1,86.14,37,15.77,15.77,0,0,1,70.47,52.86Zm-5.76-2.2a14.26,14.26,0,0,0,5.76,1.2,14.84,14.84,0,0,0,3.26-29.27h0a14.05,14.05,0,0,0-3.1-.37l-.16-.51v.5a14.35,14.35,0,0,0-5.75,1.2,15.81,15.81,0,0,1,1.92,1.35,12.46,12.46,0,0,1,3.83-.6,12.88,12.88,0,0,1,0,25.75,12.46,12.46,0,0,1-3.83-.6A15.17,15.17,0,0,1,64.71,50.66Z"/><g class="cls-2"><ellipse class="cls-1" cx="56.77" cy="37.04" rx="12.25" ry="12.38"/><path class="cls-1" d="M56.77,49.91A12.88,12.88,0,1,1,69.52,37,12.81,12.81,0,0,1,56.77,49.91Zm0-24.75A11.88,11.88,0,1,0,68.52,37,11.82,11.82,0,0,0,56.77,25.16Z"/></g><path class="cls-1" d="M66.53,48.75a15.41,15.41,0,0,0,0-23.43,15,15,0,0,0-22.71,3.76,11.86,11.86,0,0,0-.75,1.41,15.32,15.32,0,0,0,13.7,21.87,14.9,14.9,0,0,0,6.85-1.66A15.1,15.1,0,0,0,66.53,48.75ZM56.77,24.66A12.38,12.38,0,1,1,44.53,37,12.33,12.33,0,0,1,56.77,24.66Z"/><path class="cls-1" d="M56.77,52.86a15.9,15.9,0,0,1-13.38-24,15.56,15.56,0,0,1,13.38-7.61,15.59,15.59,0,0,1,10.08,3.73,15.9,15.9,0,0,1,0,24.19,15.59,15.59,0,0,1-10.08,3.73Zm0-30.65a14.54,14.54,0,0,0-12.52,7.13,12.62,12.62,0,0,0-.73,1.36A14.83,14.83,0,0,0,56.77,51.86a14.7,14.7,0,0,0,9.44-3.49h0a14.85,14.85,0,0,0-2.82-24.55A14.29,14.29,0,0,0,56.77,22.21Zm0,27.7A12.88,12.88,0,1,1,69.52,37,12.81,12.81,0,0,1,56.77,49.91Zm0-24.75A11.88,11.88,0,1,0,68.52,37,11.82,11.82,0,0,0,56.77,25.16Z"/></g></g></svg>