<?xml version="1.0" encoding="UTF-8"?>
<svg width="131px" height="80px" viewBox="0 0 131 80" version="1.1" xmlns="http://www.w3.org/2000/svg" xmlns:xlink="http://www.w3.org/1999/xlink">
    <!-- Generator: Sketch 50.2 (55047) - http://www.bohemiancoding.com/sketch -->
    <title>RWT_HeadLogo</title>
    <desc>Created with Sketch.</desc>
    <defs></defs>
    <g id="Welcome" stroke="none" stroke-width="1" fill="none" fill-rule="evenodd">
        <g id="SLIDE-2" transform="translate(-735.000000, -64.000000)" fill="#FFFFFF">
            <g id="RWT_HeadLogo" transform="translate(735.000000, 64.000000)">
                <g>
                    <g id="Group" opacity="0" transform="translate(21.960784, 3.921569)" fill-rule="nonzero">
                        <path d="M43.1372549,0.949019608 C23.7411765,0.949019608 7.23137255,12.5490196 1.23137255,28.7137255 L1.46666667,28.7137255 C5.09016433,28.7138817 8.66118847,29.5797475 11.8823529,31.2392157 C15.1028392,29.5770273 18.6738986,28.7084639 22.2980392,28.7058824 C30.3679625,28.7291025 37.8355954,32.9793137 41.9764706,39.9058824 L44.2588235,39.9058824 C48.4011383,32.9769225 55.8723762,28.7263537 63.945098,28.7058824 C67.5659439,28.7072875 71.1341341,29.5731181 74.3529412,31.2313725 C77.5741056,29.5719043 81.1451298,28.7060385 84.7686275,28.7058824 L85.0039216,28.7058824 C79.0039216,12.5490196 62.4941176,0.949019608 43.1372549,0.949019608 Z" id="Shape"></path>
                        <path d="M44.4784314,40.2980392 L41.7568627,40.2980392 L41.6392157,40.1098039 C37.5848246,33.2897099 30.2322421,29.1154944 22.2980392,29.1294118 C18.7492814,29.1296828 15.252504,29.9823585 12.1019608,31.6156863 L11.9215686,31.7019608 L11.7411765,31.6156863 C8.59074156,29.9820696 5.09389268,29.1293765 1.54509804,29.1294118 L0.760784314,29.1294118 L0.956862745,28.5960784 C7.09803922,11.8196078 24.0784314,0.556862745 43.1372549,0.556862745 C62.1960784,0.556862745 79.1529412,11.8196078 85.3882353,28.5803922 L85.5843137,29.1137255 L84.8,29.1137255 C81.2207307,29.0940027 77.6899628,29.9417099 74.5098039,31.5843137 L74.3294118,31.6705882 L74.1490196,31.5843137 C70.9985847,29.9506971 67.5017358,29.0980039 63.9529412,29.0980392 C56.0163582,29.082929 48.660883,33.2570941 44.6039216,40.0784314 L44.4784314,40.2980392 Z M42.1960784,39.5137255 L44.0392157,39.5137255 C48.2544125,32.5511345 55.8059687,28.3022683 63.945098,28.3137255 C67.561053,28.3095283 71.1269666,29.1586833 74.3529412,30.7921569 C77.4790448,29.2081004 80.9270818,28.3628617 84.4313725,28.3215686 C78.1568627,12.1568627 61.6313725,1.34117647 43.1215686,1.34117647 C24.6117647,1.34117647 8.07843137,12.1568627 1.80392157,28.3215686 C5.30821232,28.3628617 8.75624931,29.2081004 11.8823529,30.7921569 C15.110794,29.1577618 18.6794688,28.3085892 22.2980392,28.3137255 C30.4343752,28.3050171 37.9823267,32.553529 42.1960784,39.5137255 Z" id="Shape"></path>
                    </g>
                    <path d="M23.1921569,32.6352941 C29.1921569,16.4705882 45.7019608,4.87058824 65.0980392,4.87058824 C84.4941176,4.87058824 100.980392,16.4941176 106.980392,32.6352941 C108.625311,32.652043 110.263594,32.8466385 111.866667,33.2156863 C105.882353,14.2666667 87.1921569,0.392156863 65.0980392,0.392156863 C43.0039216,0.392156863 24.2431373,14.2666667 18.3058824,33.2156863 C19.9089549,32.8466385 21.5472383,32.652043 23.1921569,32.6352941 Z" id="Shape" fill-rule="nonzero"></path>
                    <path d="M112.431373,33.7254902 L111.764706,33.5686275 C110.189844,33.2063308 108.5806,33.0143784 106.964706,32.9960784 L106.666667,32.9960784 L106.572549,32.745098 C100.454902,16.2745098 83.772549,5.23137255 65.0588235,5.23137255 C46.345098,5.23137255 29.6784314,16.3215686 23.5294118,32.7764706 L23.4352941,33.027451 L23.1686275,33.027451 C21.5526744,33.0448378 19.9433318,33.2368018 18.3686275,33.6 L17.6941176,33.7568627 L17.9058824,33.0980392 C24.0392157,13.6078431 43.427451,0 65.0980392,0 C86.7686275,0 106.133333,13.6078431 112.243137,33.0980392 L112.431373,33.7254902 Z M107.239216,32.2196078 C108.592986,32.2520938 109.941584,32.3990227 111.270588,32.6588235 C105.043137,13.8745098 86.1568627,0.784313725 65.0980392,0.784313725 C44.0392157,0.784313725 25.0980392,13.8745098 18.8862745,32.6901961 C20.2153409,32.4308016 21.5639038,32.2838765 22.9176471,32.2509804 C29.2313725,15.6235294 46.1333333,4.47843137 65.0980392,4.47843137 C84.0627451,4.47843137 100.933333,15.6235294 107.239216,32.2509804 L107.239216,32.2196078 Z" id="Shape" fill-rule="nonzero"></path>
                    <path d="M65.0980392,45.9607843 C65.4412581,45.2311265 65.8208189,44.5191229 66.2352941,43.827451 L63.9372549,43.827451 C64.3529412,44.5176471 64.7372549,45.2313725 65.0980392,45.9607843 Z" id="Shape" fill-rule="nonzero"></path>
                    <path d="M65.0980392,46.8862745 L64.745098,46.1019608 C64.4120662,45.3802764 64.0375851,44.6784516 63.6235294,44 L63.2705882,43.4039216 L66.9411765,43.4039216 L66.5803922,44 C66.169149,44.6800546 65.7947528,45.3817201 65.4588235,46.1019608 L65.0980392,46.8862745 Z M64.6431373,44.2196078 C64.8,44.4941176 64.9568627,44.7843137 65.1058824,45.0745098 C65.254902,44.7843137 65.4039216,44.4941176 65.5607843,44.2196078 L64.6431373,44.2196078 Z" id="Shape" fill-rule="nonzero"></path>
                    <g id="Group" opacity="0" transform="translate(3.921569, 36.078431)" fill-rule="nonzero">
                        <path d="M0.901960784,19.8352941 C0.849810276,30.1671378 9.17413808,38.5897292 19.5058824,38.6588235 C21.547989,38.6547132 23.5753523,38.3128441 25.5058824,37.6470588 C20.2947432,33.2019489 17.2932319,26.6965094 17.2932319,19.8470588 C17.2932319,12.9976082 20.2947432,6.49216874 25.5058824,2.04705882 C23.5762929,1.37759045 21.5483082,1.03561655 19.5058824,1.03529412 C9.18336316,1.10438409 0.862824735,9.5126179 0.901960784,19.8352941 Z" id="Shape"></path>
                        <path d="M19.5137255,39.0352941 C8.901195,39.0352941 0.298039216,30.4321383 0.298039216,19.8196078 C0.298039216,9.20707736 8.901195,0.603921569 19.5137255,0.603921569 C21.595888,0.603828188 23.6634803,0.951077663 25.6313725,1.63137255 L26.2823529,1.85882353 L25.7568627,2.30588235 C20.6356013,6.67646212 17.6860933,13.0712188 17.6860933,19.8039216 C17.6860933,26.5366243 20.6356013,32.931381 25.7568627,37.3019608 L26.2823529,37.7490196 L25.6313725,37.9764706 C23.6653001,38.6674392 21.5976589,39.0253002 19.5137255,39.0352941 Z M19.5137255,1.38823529 C9.33435951,1.38823529 1.08235294,9.64024187 1.08235294,19.8196078 C1.08235294,29.9989738 9.33435951,38.2509804 19.5137255,38.2509804 C21.2814977,38.2487799 23.0391735,37.9844678 24.7294118,37.4666667 C19.7400579,32.9565999 16.8930244,26.5452568 16.8930244,19.8196078 C16.8930244,13.0939589 19.7400579,6.68261581 24.7294118,2.17254902 C23.0368607,1.66860687 21.2796997,1.41494152 19.5137255,1.41960784 L19.5137255,1.38823529 Z" id="Shape"></path>
                    </g>
                    <path d="M29.427451,73.7254902 C27.4964706,74.3886084 25.4691191,74.7278254 23.427451,74.7294118 C13.0315029,74.7294116 4.60392185,66.3018305 4.60392185,55.9058824 C4.60392185,45.5099342 13.0315029,37.0823531 23.427451,37.0823529 C25.4698768,37.0826754 27.4978616,37.4246493 29.427451,38.0941176 C30.7798116,36.9385354 32.2616017,35.9436568 33.8431373,35.1294118 C30.6199404,33.4781018 27.0490213,32.6203283 23.427451,32.627451 L23.1921569,32.627451 C21.5472383,32.6441999 19.9089549,32.8387954 18.3058824,33.2078431 C6.80871518,35.8935077 -0.864786797,46.7512914 0.441457739,58.4854881 C1.74770227,70.2196848 11.6211277,79.1241539 23.427451,79.2156863 C27.0509486,79.2155301 30.6219728,78.3496643 33.8431373,76.6901961 C32.26309,75.8734328 30.781579,74.8787416 29.427451,73.7254902 Z" id="Shape" fill-rule="nonzero"></path>
                    <path d="M23.4352941,79.5921569 C11.4748905,79.4440261 1.49914819,70.4074438 0.17298832,58.5198664 C-1.15317155,46.632289 6.58589041,35.6194704 18.2196078,32.8392157 C19.8506318,32.4609477 21.5179394,32.2610812 23.1921569,32.2431373 L23.4352941,32.2431373 C27.1199788,32.2387946 30.7516102,33.1211465 34.0235294,34.8156863 L34.6980392,35.1607843 L34.0235294,35.5137255 C32.4665324,36.3138273 31.0082913,37.2930073 29.6784314,38.4313725 L29.5058824,38.572549 L29.2941176,38.5019608 C27.4094751,37.8499938 25.4295191,37.5160253 23.4352941,37.5137255 C13.2559281,37.5137255 5.00392157,45.7657321 5.00392157,55.945098 C5.00392157,66.124464 13.2559281,74.3764706 23.4352941,74.3764706 C25.4298403,74.3780024 27.4104285,74.0439273 29.2941176,73.3882353 L29.5058824,73.3176471 L29.6784314,73.4588235 C31.0067232,74.5970535 32.4652669,75.5738038 34.0235294,76.3686275 L34.6980392,76.7215686 L34.0235294,77.0666667 C30.7488084,78.7483806 27.1165234,79.6147478 23.4352941,79.5921569 Z M23.4352941,33.0196078 L23.2,33.0196078 C21.5840469,33.0369946 19.9747043,33.2289587 18.4,33.5921569 C7.14857599,36.2766219 -0.338641577,46.9248623 0.941810323,58.4210068 C2.22226222,69.9171513 11.8689444,78.6570011 23.4352941,78.8 C26.7402602,78.8071702 30.0047327,78.0727979 32.9882353,76.6509804 C31.694159,75.9374489 30.4726997,75.0995015 29.3411765,74.1490196 C27.4366695,74.7829032 25.4425199,75.1059925 23.4352941,75.1058824 C12.8227636,75.1058824 4.21960784,66.5027266 4.21960784,55.8901961 C4.21960784,45.2776656 12.8227636,36.6745098 23.4352941,36.6745098 C25.4433733,36.679457 27.4375447,37.0078464 29.3411765,37.6470588 C30.4766654,36.7018059 31.6976099,35.8642117 32.9882353,35.145098 C30.0028443,33.7313998 26.738458,33.0050873 23.4352941,33.0196078 Z" id="Shape" fill-rule="nonzero"></path>
                    <g id="Group" opacity="0" transform="translate(24.313725, 36.078431)" fill-rule="nonzero">
                        <ellipse id="Oval" cx="19.945098" cy="19.8352941" rx="18.6117647" ry="18.8078431"></ellipse>
                        <path d="M19.945098,39.0352941 C12.1613993,39.1179688 5.09804005,34.4928212 2.06188639,27.3252155 C-0.97426727,20.1576098 0.61768611,11.8661251 6.09243874,6.33260139 C11.5671914,0.799077672 19.8412056,-0.881315743 27.0408207,2.07813407 C34.2404358,5.03758388 38.9407374,12.0511563 38.9411765,19.8352941 C38.9846449,30.3776058 30.4872729,38.9661965 19.945098,39.0352941 Z M19.945098,1.38823529 C12.4815057,1.3055956 5.7061736,5.73625698 2.78960977,12.6068971 C-0.126954048,19.4775372 1.3921416,27.4291555 6.63603786,32.7408024 C11.8799341,38.0524492 19.8113975,39.6734902 26.7189098,36.8453612 C33.6264222,34.0172323 38.1436897,27.2993323 38.1568627,19.8352941 C38.1960206,9.72790486 30.0522967,1.49299369 19.945098,1.41960784 L19.945098,1.38823529 Z" id="Shape"></path>
                    </g>
                    <path d="M62.8627451,55.9137255 C62.7460937,66.1653628 54.3607902,74.3921593 44.1087935,74.3131719 C33.8567968,74.2341845 25.5992493,65.8791617 25.6405716,55.6269441 C25.681894,45.3747264 34.0065232,37.0865393 44.2588235,37.0901961 C54.5905678,37.1592904 62.9148956,45.5818818 62.8627451,55.9137255 C62.8646431,52.4718207 63.6279806,49.0729604 65.0980392,45.9607843 C64.7529412,45.2313725 64.3686275,44.5176471 63.9529412,43.827451 C59.8091873,36.8960988 52.3343437,32.6451721 44.2588235,32.627451 C40.6353259,32.6276072 37.0643017,33.493473 33.8431373,35.1529412 C32.2616017,35.9671862 30.7798116,36.9620648 29.427451,38.1176471 C23.4906177,43.1621102 20.4596822,50.8344858 21.3460926,58.574439 C22.232503,66.3143921 26.9195537,73.1028731 33.8431373,76.6745098 C37.0629449,78.3394188 40.6340396,79.2106799 44.2588235,79.2156863 C53.2033037,79.1891747 61.3255601,73.9923979 65.0980392,65.8823529 C63.6257211,62.7653908 62.8623276,59.3609234 62.8627451,55.9137255 Z" id="Shape" fill-rule="nonzero"></path>
                    <path d="M44.2588235,79.5921569 C40.571084,79.6011584 36.9358181,78.7185772 33.6627451,77.0196078 C32.0536742,76.1953045 30.5455715,75.1872708 29.1686275,74.0156863 C23.8728071,69.4946191 20.8229317,62.8808188 20.8229317,55.9176471 C20.8229317,48.9544753 23.8728071,42.340675 29.1686275,37.8196078 C34.3845707,33.3440379 41.313593,31.4058905 48.0946519,32.5257261 C54.8757108,33.6455618 60.8136891,37.7085876 64.3137255,43.6235294 C64.7378396,44.3272219 65.1252849,45.052373 65.4745098,45.7960784 L65.5529412,45.9607843 L65.4745098,46.1333333 C62.5672962,52.3322765 62.5672962,59.5030177 65.4745098,65.7019608 L65.5529412,65.8666667 L65.4745098,66.0313725 C61.6195798,74.2735891 53.3578998,79.554345 44.2588235,79.5921569 Z M44.2588235,33.0196078 C40.7100657,33.0198789 37.2132883,33.8725546 34.0627451,35.5058824 C32.491677,36.3058026 31.0201327,37.2877096 29.6784314,38.4313725 C24.5571699,42.8019523 21.6076619,49.196709 21.6076619,55.9294118 C21.6076619,62.6621145 24.5571699,69.0568712 29.6784314,73.427451 C33.7455609,76.8971072 38.9128102,78.809462 44.2588235,78.8235294 C52.9742247,78.7730512 60.8944251,73.7467701 64.6509804,65.8823529 C63.7921107,64.0169015 63.1804076,62.0473231 62.8313725,60.0235294 C60.7401889,69.604909 51.764404,76.0703529 42.0140243,75.0186967 C32.2636446,73.9670406 24.8729558,65.7363422 24.8729558,55.9294118 C24.8729558,46.1224813 32.2636446,37.8917829 42.0140243,36.8401268 C51.764404,35.7884707 60.7401889,42.2539145 62.8313725,51.8352941 C63.1804076,49.8115004 63.7921107,47.8419221 64.6509804,45.9764706 C64.336227,45.3160523 63.9880642,44.672082 63.6078431,44.0470588 C59.5637816,37.206475 52.2053935,33.0127605 44.2588235,33.0196078 Z M44.2588235,37.4980392 C36.7923728,37.4153563 30.0150132,41.849391 27.1002519,48.7239011 C24.1854906,55.5984112 25.7103251,63.5525389 30.9607497,68.8617538 C36.2111744,74.1709688 44.1478306,75.7842744 51.0543691,72.9462384 C57.9609076,70.1082024 62.4701304,63.380634 62.4705882,55.9137255 C62.5097461,45.8063362 54.3660222,37.5714251 44.2588235,37.4980392 Z" id="Shape" fill-rule="nonzero"></path>
                    <g id="Group" opacity="0" transform="translate(99.607843, 36.078431)" fill-rule="nonzero">
                        <path d="M9.33333333,19.8352941 C9.34658245,26.6908086 6.34332369,33.2050403 1.12156863,37.6470588 C3.05254903,38.310177 5.07990055,38.649394 7.12156863,38.6509804 C17.5175168,38.6509802 25.9450978,30.2233991 25.9450978,19.827451 C25.9450978,9.43150286 17.5175168,1.00392172 7.12156863,1.00392157 C5.07914282,1.004244 3.05115806,1.3462179 1.12156863,2.01568627 C6.34541797,6.45947797 9.34888972,12.9770404 9.33333333,19.8352941 Z" id="Shape"></path>
                        <path d="M7.12156863,39.0352941 C5.03679799,39.0359668 2.96653138,38.6887134 0.996078431,38.0078431 L0.345098039,37.7803922 L0.870588235,37.3333333 C5.99184969,32.9627536 8.94135772,26.5679969 8.94135772,19.8352941 C8.94135772,13.1025914 5.99184969,6.70783467 0.870588235,2.3372549 L0.345098039,1.89019608 L0.996078431,1.6627451 C2.96653138,0.981874878 5.03679799,0.634621452 7.12156863,0.635294118 C17.7340991,0.635294118 26.3372549,9.23844991 26.3372549,19.8509804 C26.3372549,30.4635109 17.7340991,39.0666667 7.12156863,39.0666667 L7.12156863,39.0352941 Z M1.90588235,37.4666667 C3.59586258,37.9856032 5.35370911,38.2499411 7.12156863,38.2509804 C17.3009346,38.2509804 25.5529412,29.9989738 25.5529412,19.8196078 C25.5529412,9.64024187 17.3009346,1.38823529 7.12156863,1.38823529 C5.35396996,1.39272712 3.59662865,1.65698897 1.90588235,2.17254902 C6.89075707,6.68517204 9.73457319,13.0955657 9.73457319,19.8196078 C9.73457319,26.54365 6.89075707,32.9540436 1.90588235,37.4666667 Z" id="Shape"></path>
                    </g>
                    <path d="M111.85098,33.2156863 C110.247908,32.8466385 108.609624,32.652043 106.964706,32.6352941 L106.729412,32.6352941 C103.105914,32.6354503 99.53489,33.5013161 96.3137255,35.1607843 C97.895261,35.9750293 99.3770511,36.9699079 100.729412,38.1254902 C102.659001,37.4560218 104.686986,37.1140479 106.729412,37.1137255 C117.12536,37.1137256 125.552941,45.5413068 125.552941,55.9372549 C125.552941,66.333203 117.12536,74.7607842 106.729412,74.7607843 C104.685988,74.7491058 102.658589,74.39928 100.729412,73.7254902 C99.3748838,74.876002 97.8933888,75.8680511 96.3137255,76.6823529 C99.5342117,78.3445414 103.105271,79.2131047 106.729412,79.2156863 C118.498236,79.0760731 128.316661,70.1850555 129.619467,58.487731 C130.922274,46.7904065 123.300686,35.9569826 111.85098,33.2313725 L111.85098,33.2156863 Z" id="Shape" fill-rule="nonzero"></path>
                    <path d="M106.729412,79.5921569 C103.041672,79.6011584 99.4064063,78.7185772 96.1333333,77.0196078 L95.4588235,76.6745098 L96.1333333,76.3215686 C97.6915958,75.526745 99.1501395,74.5499946 100.478431,73.4117647 L100.65098,73.2705882 L100.862745,73.3411765 C102.749143,73.9968671 104.732307,74.3309295 106.729412,74.3294118 C116.908778,74.3294118 125.160784,66.0774052 125.160784,55.8980392 C125.160784,45.7186732 116.908778,37.4666667 106.729412,37.4666667 C104.732566,37.4682422 102.749912,37.8022187 100.862745,38.454902 L100.65098,38.5254902 L100.478431,38.3843137 C99.1481627,37.2486905 97.6899382,36.2721539 96.1333333,35.4745098 L95.4588235,35.1215686 L96.1333333,34.7764706 C99.4077153,33.0809976 103.042112,32.1986274 106.729412,32.2039216 L106.972549,32.2039216 C108.644178,32.2218756 110.308885,32.4217457 111.937255,32.8 C123.569713,35.5797451 131.308742,46.5903791 129.984701,58.476841 C128.660659,70.3633029 118.688425,79.4010667 106.729412,79.5529412 L106.729412,79.5921569 Z M97.1686275,76.6588235 C100.154869,78.0807719 103.421917,78.8151206 106.729412,78.8078431 C118.295761,78.6648442 127.942444,69.9249944 129.222896,58.4288499 C130.503347,46.9327055 123.01613,36.284465 111.764706,33.6 C110.189844,33.2377034 108.5806,33.045751 106.964706,33.027451 L106.729412,33.027451 C103.421917,33.0201735 100.154869,33.7545222 97.1686275,35.1764706 C98.4579939,35.8856173 99.6788963,36.7126803 100.815686,37.6470588 C102.722755,37.0126099 104.719577,36.6895168 106.729412,36.6901961 C117.341942,36.6901962 125.945098,45.293352 125.945098,55.9058824 C125.945098,66.5184127 117.341942,75.1215685 106.729412,75.1215686 C104.71962,75.1217025 102.722886,74.7986234 100.815686,74.1647059 C99.6838209,75.1124643 98.4623732,75.9477769 97.1686275,76.6588235 Z" id="Shape" fill-rule="nonzero"></path>
                    <g id="Group" opacity="0" transform="translate(65.882353, 36.078431)" fill-rule="nonzero">
                        <ellipse id="Oval" cx="20.0235294" cy="19.8352941" rx="18.6117647" ry="18.8078431"></ellipse>
                        <path d="M20.0235294,39.0352941 C12.2398307,39.1179688 5.17647143,34.4928212 2.14031776,27.3252155 C-0.895835897,20.1576098 0.696117482,11.8661251 6.17087011,6.33260139 C11.6456227,0.799077672 19.919637,-0.881315743 27.1192521,2.07813407 C34.3188672,5.03758388 39.0191688,12.0511563 39.0196078,19.8352941 C39.0630763,30.3776058 30.5657043,38.9661965 20.0235294,39.0352941 Z M20.0235294,1.38823529 C12.5570787,1.30555234 5.77971909,5.7395871 2.86495776,12.6140972 C-0.0498035607,19.4886072 1.47503095,27.442735 6.72545561,32.7519499 C11.9758803,38.0611648 19.9125365,39.6744705 26.819075,36.8364345 C33.7256135,33.9983985 38.2348363,27.27083 38.2352941,19.8039216 C38.2571407,9.70875784 30.1184503,1.49295666 20.0235294,1.41960784 L20.0235294,1.38823529 Z" id="Shape"></path>
                    </g>
                    <path d="M100.729412,73.7254902 C105.940551,69.2803803 108.942062,62.7749408 108.942062,55.9254902 C108.942062,49.0760396 105.940551,42.5706001 100.729412,38.1254902 C99.3770511,36.9699079 97.895261,35.9750293 96.3137255,35.1607843 C93.0949184,33.5025299 89.5267282,32.6366993 85.9058824,32.6352941 C77.8331605,32.6557654 70.3619226,36.9063342 66.2196078,43.8352941 C65.8106962,44.5247312 65.4363763,45.2341067 65.0980392,45.9607843 C62.1340233,52.270558 62.1340233,59.5725793 65.0980392,65.8823529 C68.8650799,73.9899254 76.98163,79.1869632 85.9215686,79.2156863 C89.5424145,79.2142811 93.1106047,78.3484505 96.3294118,76.6901961 C97.9039927,75.8724063 99.3801936,74.8777469 100.729412,73.7254902 Z M85.9058824,37.1137255 C93.5379733,37.027859 100.466441,41.5592222 103.446806,48.585858 C106.427171,55.6124937 104.869401,63.7433155 99.5029718,69.1708036 C94.136543,74.5982916 86.023865,76.2479481 78.9639613,73.3472681 C71.9040575,70.4465881 67.2946007,63.5698288 67.2941176,55.9372549 C67.2376352,45.5993134 75.5679896,37.1706658 85.9058824,37.1058824 L85.9058824,37.1137255 Z" id="Shape" fill-rule="nonzero"></path>
                    <path d="M85.9058824,79.5921569 C77.8407633,79.4968394 70.3772654,75.308002 66.0946234,68.4732227 C61.8119815,61.6384434 61.2976651,53.0952801 64.7294118,45.7960784 C65.0901961,45.0117647 65.5137255,44.3058824 65.8901961,43.6235294 C70.0822335,36.5585344 77.690817,32.2295127 85.9058824,32.2352941 C91.436503,32.2491596 96.7821402,34.2284074 100.988235,37.8196078 C106.284056,42.340675 109.333931,48.9544753 109.333931,55.9176471 C109.333931,62.8808188 106.284056,69.4946191 100.988235,74.0156863 C99.6039346,75.1887918 98.0878622,76.1968747 96.4705882,77.0196078 C93.2073643,78.714835 89.5831637,79.5973427 85.9058824,79.5921569 Z M85.9058824,33.0196078 C77.9692993,33.0044976 70.6138241,37.1786627 66.5568627,44 C66.1456196,44.6800546 65.7712234,45.3817201 65.4352941,46.1019608 C62.1011966,53.1574567 62.5905089,61.4252972 66.7335424,68.0382771 C70.8765758,74.6512569 78.1026683,78.6985031 85.9058824,78.7764706 C91.2491963,78.7605462 96.4133568,76.8483059 100.478431,73.3803922 C105.599693,69.0098124 108.549201,62.6150557 108.549201,55.8823529 C108.549201,49.1496502 105.599693,42.7548935 100.478431,38.3843137 C99.1481627,37.2486905 97.6899382,36.2721539 96.1333333,35.4745098 C92.970748,33.8468823 89.4626926,33.0048414 85.9058824,33.0196078 Z M85.9058824,75.1137255 C78.1221836,75.1964001 71.0588244,70.5712526 68.0226707,63.4036469 C64.986517,56.2360411 66.5784704,47.9445565 72.0532231,42.4110328 C77.5279757,36.877509 85.8019899,35.1971156 93.001605,38.1565654 C100.20122,41.1160153 104.901522,48.1295877 104.901961,55.9137255 C104.945429,66.4560372 96.4480572,75.0446279 85.9058824,75.1137255 Z M85.9058824,37.4666667 C78.4394317,37.3839837 71.662072,41.8180185 68.7473107,48.6925285 C65.8325494,55.5670386 67.3573839,63.5211663 72.6078085,68.8303813 C77.8582332,74.1395962 85.7948895,75.7529019 92.701428,72.9148659 C99.6079665,70.0768299 104.117189,63.3492614 104.117647,55.8823529 C104.139494,45.7871892 96.0008033,37.571388 85.9058824,37.4980392 L85.9058824,37.4666667 Z" id="Shape" fill-rule="nonzero"></path>
                </g>
            </g>
        </g>
    </g>
</svg>