<?xml version="1.0" encoding="UTF-8"?>
<svg width="20px" height="17px" viewBox="0 0 20 17" version="1.1" xmlns="http://www.w3.org/2000/svg" xmlns:xlink="http://www.w3.org/1999/xlink">
    <!-- Generator: Sketch 50.2 (55047) - http://www.bohemiancoding.com/sketch -->
    <title>full-view</title>
    <desc>Created with Sketch.</desc>
    <defs></defs>
    <g id="Welcome" stroke="none" stroke-width="1" fill="none" fill-rule="evenodd">
        <g id="Desktop-HD" transform="translate(-509.000000, -890.000000)">
            <g id="full-view" transform="translate(509.000000, 890.000000)">
                <g id="Group">
                    <rect id="Rectangle-67" fill="#D8D8D8" x="0" y="0" width="20" height="17"></rect>
                    <polygon id="Path" fill="#000000" points="20 2 9 2 9 0 20 0"></polygon>
                    <polygon id="Path" fill="#000000" points="20 5 9 5 9 3 20 3"></polygon>
                    <polygon id="Path" fill="#000000" points="20 8 9 8 9 6 20 6"></polygon>
                    <polygon id="Path" fill="#000000" points="20 11 0 11 0 9 20 9"></polygon>
                    <polygon id="Path" fill="#000000" points="20 14 0 14 0 12 20 12"></polygon>
                    <polygon id="Path" fill="#000000" points="20 17 0 17 0 15 20 15"></polygon>
                    <polygon id="Path" fill="#000000" points="8 0 0 0 0 8 8 8"></polygon>
                </g>
            </g>
        </g>
    </g>
</svg>