<?xml version="1.0" encoding="UTF-8"?>
<svg width="819px" height="73px" viewBox="0 0 819 73" version="1.1" xmlns="http://www.w3.org/2000/svg" xmlns:xlink="http://www.w3.org/1999/xlink">
    <!-- Generator: Sketch 50.2 (55047) - http://www.bohemiancoding.com/sketch -->
    <title>Horizontal Logo</title>
    <desc>Created with Sketch.</desc>
    <defs></defs>
    <g id="Welcome" stroke="none" stroke-width="1" fill="none" fill-rule="evenodd">
        <g id="Artboard" transform="translate(-2152.000000, -1011.000000)" fill="#FFFFFF">
            <g id="Horizontal-Logo" transform="translate(2153.000000, 1012.000000)">
                <g id="Layer-1-(4)" stroke-width="1" fill-rule="evenodd" stroke="#FFFFFF">
                    <path d="M57.9859394,4.01430303 C40.6140606,4.01430303 25.8152727,14.4332121 20.4370909,28.9015758 L20.648,28.9015758 C23.8959715,28.9017158 27.0969077,29.6778464 29.9842424,31.1653333 C32.8709692,29.6754081 36.071937,28.8968594 39.3204848,28.8945455 C46.5490528,28.9202834 53.2363072,32.7293777 56.9454545,38.9338182 L58.9912727,38.9338182 C62.7030026,32.7250939 69.3967173,28.9153591 76.630303,28.8945455 C79.8758976,28.895805 83.0742935,29.6719041 85.9595152,31.158303 C88.8468498,29.6708161 92.047786,28.8946855 95.2957576,28.8945455 L95.5066667,28.8945455 C90.1495758,14.4332121 75.3507879,4.01430303 57.9859394,4.01430303 Z" id="Shape" stroke-width="2" fill-rule="nonzero" opacity="0"></path>
                    <path d="M20.4370909,28.9015758 C25.8152727,14.4332121 40.6140606,4.01430303 57.9859394,4.01430303 C75.3578182,4.01430303 90.1495758,14.4332121 95.5277576,28.9015758 C97.0022028,28.9165889 98.4707005,29.0910172 99.9076364,29.4218182 C94.585697,12.4366061 77.8043636,0 57.9859394,0 C38.1675152,0 21.3791515,12.4366061 16.0572121,29.4218182 C17.494148,29.0910172 18.9626457,28.9165889 20.4370909,28.9015758 Z" id="Shape" stroke-width="2" fill-rule="nonzero"></path>
                    <path d="M57.9859394,40.8460606 C58.2935883,40.1920219 58.6338128,39.5538077 59.0053333,38.9338182 L56.9454545,38.9338182 C57.3321212,39.5524848 57.6484848,40.1922424 57.9859394,40.8460606 Z" id="Shape" stroke-width="2" fill-rule="nonzero"></path>
                    <path d="M3.97212121,49.7675152 C3.92537539,59.0286041 11.3870001,66.5783088 20.648,66.6402424 C22.4748298,66.6338664 24.2877823,66.3225993 26.0121212,65.7192727 C21.3413234,61.7361623 18.650918,55.9060427 18.650918,49.7675152 C18.650918,43.6289876 21.3413234,37.798868 26.0121212,33.8157576 C24.2825074,33.2156705 22.4646956,32.9091375 20.6339394,32.9088485 C11.3839572,32.9784917 3.93312268,40.517353 3.97212121,49.7675152 Z" id="Shape" stroke-width="2" fill-rule="nonzero" opacity="0"></path>
                    <path d="M26.0121212,65.7192727 C24.2825074,66.3193598 22.4646956,66.6258928 20.6339394,66.6261818 C11.3153894,66.6261818 3.76121212,59.0720045 3.76121212,49.7534545 C3.76121212,40.4349046 11.3153894,32.8807273 20.6339394,32.8807273 C22.4662876,32.8900559 24.2841437,33.2061015 26.0121212,33.8157576 C27.2243281,32.7799357 28.5525509,31.8881627 29.9701818,31.158303 C27.0870734,29.6729912 23.8912174,28.8969236 20.648,28.8945455 L20.4370909,28.8945455 C18.9626457,28.9095586 17.494148,29.0839869 16.0572121,29.4147879 C5.79411252,31.8579256 -1.03760158,41.5686129 0.130186546,52.0536692 C1.29797467,62.5387255 10.0988543,70.5083104 20.648,70.6334545 C23.8959715,70.6333145 27.0969077,69.8571839 29.9842424,68.369697 C28.5620585,67.6429781 27.2290882,66.7535448 26.0121212,65.7192727 Z" id="Shape" stroke-width="2" fill-rule="nonzero"></path>
                    <ellipse id="Oval" stroke-width="2" fill-rule="nonzero" opacity="0" cx="39.3204848" cy="49.7675152" rx="16.6829091" ry="16.8586667"></ellipse>
                    <path d="M55.9963636,49.7675152 C55.8918016,58.95671 48.3755204,66.3309113 39.1860034,66.2601099 C29.9964864,66.1893084 22.594721,58.7001698 22.6317609,49.5104547 C22.6688007,40.3207396 30.1306957,32.8915101 39.3204848,32.8947879 C48.5814847,32.9567215 56.0431095,40.5064262 55.9963636,49.7675152 C55.9936675,46.6833793 56.6730826,43.6368146 57.9859394,40.8460606 C57.6766061,40.1922424 57.3321212,39.5524848 56.9595152,38.9338182 C53.2477853,32.7250939 46.5540706,28.9153591 39.3204848,28.8945455 C36.0725133,28.8946855 32.8715771,29.6708161 29.9842424,31.158303 C28.561709,31.8872258 27.2287239,32.7790282 26.0121212,33.8157576 C21.3413234,37.798868 18.650918,43.6289876 18.650918,49.7675152 C18.650918,55.9060427 21.3413234,61.7361623 26.0121212,65.7192727 C27.2243281,66.7550946 28.5525509,67.6468676 29.9701818,68.3767273 C32.8575165,69.8642142 36.0584527,70.6403449 39.3064242,70.6404848 C47.3188404,70.6112768 54.5925232,65.9539281 57.9718788,58.6889697 C56.663871,55.8971043 55.9892684,52.8505893 55.9963636,49.7675152 Z" id="Shape" stroke-width="2" fill-rule="nonzero"></path>
                    <path d="M97.2993939,49.7675152 C97.3090506,55.9080564 94.617067,61.7419733 89.9386667,65.7192727 C91.6682805,66.3193598 93.4860923,66.6258928 95.3168485,66.6261818 C104.635398,66.6261818 112.189576,59.0720045 112.189576,49.7534545 C112.189576,40.4349046 104.635398,32.8807273 95.3168485,32.8807273 C93.4860923,32.8810163 91.6682805,33.1875493 89.9386667,33.7876364 C94.6230134,37.7724787 97.3154073,43.6175707 97.2993939,49.7675152 Z" id="Shape" stroke-width="2" fill-rule="nonzero" opacity="0"></path>
                    <path d="M99.9076364,29.4218182 C98.4707005,29.0910172 97.0022028,28.9165889 95.5277576,28.9015758 L95.3168485,28.9015758 C92.0688769,28.9017158 88.8679408,29.6778464 85.9806061,31.1653333 C87.398237,31.895193 88.7264598,32.786966 89.9386667,33.8227879 C91.6682805,33.2227008 93.4860923,32.9161678 95.3168485,32.9158788 C104.635398,32.9158789 112.189576,40.4700562 112.189576,49.7886061 C112.189576,59.1071559 104.635398,66.6613332 95.3168485,66.6613333 C93.4860923,66.6610443 91.6682805,66.3545113 89.9386667,65.7544242 C88.7264598,66.7902462 87.398237,67.6820192 85.9806061,68.4118788 C88.8679408,69.8993658 92.0688769,70.6754964 95.3168485,70.6756364 C105.865994,70.5504922 114.666874,62.5809074 115.834662,52.095851 C117.00245,41.6107947 110.170736,31.9001074 99.9076364,29.4569697 L99.9076364,29.4218182 Z" id="Shape" stroke-width="2" fill-rule="nonzero"></path>
                    <ellipse id="Oval" stroke-width="2" fill-rule="nonzero" opacity="0" cx="76.6513939" cy="49.7675152" rx="16.6829091" ry="16.8586667"></ellipse>
                    <path d="M89.9386667,65.7192727 C94.6094644,61.7361623 97.2998699,55.9060427 97.2998699,49.7675152 C97.2998699,43.6289876 94.6094644,37.798868 89.9386667,33.8157576 C88.7264598,32.7799357 87.398237,31.8881627 85.9806061,31.158303 C83.0890457,29.6686374 79.8830281,28.8924437 76.630303,28.8945455 C69.3942087,28.9128952 62.6972628,32.7229505 58.9842424,38.9338182 C58.6127219,39.5538077 58.2724974,40.1920219 57.9648485,40.8460606 C55.3124136,46.497974 55.3124136,53.0370563 57.9648485,58.6889697 C61.3414868,65.9563029 68.6168672,70.6147385 76.630303,70.6404848 C79.8758976,70.6392253 83.0742935,69.8631262 85.9595152,68.3767273 C87.3844998,67.6482741 88.7198663,66.7564569 89.9386667,65.7192727 Z M76.630303,32.9088485 C83.4714318,32.8318809 89.6818579,36.8936301 92.3533487,43.1920509 C95.0248396,49.4904716 93.6285112,56.7786446 88.8182396,61.6436476 C84.0079679,66.5086505 76.7360584,67.9873426 70.4078174,65.3872785 C64.0795764,62.7872144 59.9478269,56.6231375 59.9473939,49.7815758 C59.9006595,40.5177598 67.3665512,32.9669211 76.630303,32.9088485 Z" id="Shape" stroke-width="2" fill-rule="nonzero"></path>
                </g>
                <g id="ROCKWITHTHIS" transform="translate(144.000000, 15.000000)" font-family="Code-Pro-Demo, Code Pro Demo" font-size="70" font-weight="normal" letter-spacing="11.9">
                    <text>
                        <tspan x="0" y="49">R</tspan>
                        <tspan x="51.59" y="49" letter-spacing="6.1">O</tspan>
                        <tspan x="113.55" y="49" letter-spacing="12.8">C</tspan>
                        <tspan x="178.85" y="49" letter-spacing="18">K</tspan>
                        <tspan x="236.4" y="49" letter-spacing="14.3999996">WI</tspan>
                        <tspan x="359.069999" y="49" letter-spacing="16">T</tspan>
                        <tspan x="415.249999" y="49" letter-spacing="17.5">H</tspan>
                        <tspan x="474.959999" y="49" letter-spacing="15.9">T</tspan>
                        <tspan x="531.039999" y="49" letter-spacing="18.3">H</tspan>
                        <tspan x="591.549999" y="49" letter-spacing="15.2">I</tspan>
                        <tspan x="636.779999" y="49">S</tspan>
                    </text>
                </g>
            </g>
        </g>
    </g>
</svg>