<svg xmlns="http://www.w3.org/2000/svg" viewBox="0 0 1174.56 969.02"><defs><style>.cls-1,.cls-2{fill:#fff;}.cls-1{opacity:0;}.cls-3{font-size:12px;font-family:MyriadPro-Regular, Myriad Pro;}.cls-4{letter-spacing:0em;}.cls-5{letter-spacing:-0.01em;}.cls-6{letter-spacing:0em;}.cls-7{letter-spacing:0.01em;}.cls-8{letter-spacing:-0.01em;}.cls-9{letter-spacing:0em;}.cls-10{letter-spacing:-0.01em;}.cls-11{letter-spacing:-0.03em;}.cls-12{letter-spacing:0em;}.cls-13{letter-spacing:-0.01em;}</style></defs><title>RWT_Text_3</title><g id="Layer_2" data-name="Layer 2"><g id="Layer_5" data-name="Layer 5"><path class="cls-1" d="M507,6.59c-28.54,0-52.84,17.12-61.68,40.89h.35A33.44,33.44,0,0,1,461,51.19a33.44,33.44,0,0,1,15.33-3.72A33.89,33.89,0,0,1,505.3,64h3.36a33.86,33.86,0,0,1,29-16.49A33.41,33.41,0,0,1,553,51.19a33.44,33.44,0,0,1,15.33-3.72h.36C559.82,23.71,535.51,6.59,507,6.59Z"/><path class="cls-2" d="M445.3,47.48C454.14,23.71,478.44,6.59,507,6.59s52.84,17.12,61.68,40.89a33.51,33.51,0,0,1,7.19.86C567.11,20.43,539.54,0,507,0S446.84,20.43,438.1,48.34A33.53,33.53,0,0,1,445.3,47.48Z"/><path class="cls-2" d="M507,67.11A29.63,29.63,0,0,1,508.66,64H505.3A33.77,33.77,0,0,1,507,67.11Z"/><path class="cls-1" d="M418.25,81.76a27.58,27.58,0,0,0,27.4,27.69,27.12,27.12,0,0,0,8.82-1.48,34.47,34.47,0,0,1,0-52.42,26.85,26.85,0,0,0-8.82-1.48A27.58,27.58,0,0,0,418.25,81.76Z"/><path class="cls-2" d="M454.47,108a27.12,27.12,0,0,1-8.82,1.48,27.69,27.69,0,0,1,0-55.38,26.85,26.85,0,0,1,8.82,1.48A33.65,33.65,0,0,1,461,51.19a33.44,33.44,0,0,0-15.33-3.72h-.35a33.53,33.53,0,0,0-7.2.86,34.32,34.32,0,0,0,7.55,67.7A33.43,33.43,0,0,0,461,112.33,34.11,34.11,0,0,1,454.47,108Z"/><ellipse class="cls-1" cx="476.31" cy="81.76" rx="27.4" ry="27.69"/><path class="cls-2" d="M503.71,81.76a27.4,27.4,0,1,1-27.4-27.69,27.58,27.58,0,0,1,27.4,27.69A34.33,34.33,0,0,1,507,67.11a33.71,33.71,0,0,0-52.51-11.56A34.39,34.39,0,0,0,461,112.33,33.43,33.43,0,0,0,476.31,116,34,34,0,0,0,507,96.41,34.33,34.33,0,0,1,503.71,81.76Z"/><path class="cls-1" d="M571.57,81.76A34.4,34.4,0,0,1,559.48,108a27.16,27.16,0,0,0,8.82,1.48,27.69,27.69,0,0,0,0-55.38,26.9,26.9,0,0,0-8.82,1.48A34.37,34.37,0,0,1,571.57,81.76Z"/><path class="cls-2" d="M575.85,48.34a33.51,33.51,0,0,0-7.19-.86h-.36A33.44,33.44,0,0,0,553,51.19a33.65,33.65,0,0,1,6.51,4.36,26.9,26.9,0,0,1,8.82-1.48,27.69,27.69,0,0,1,0,55.38,27.16,27.16,0,0,1-8.82-1.48,34.11,34.11,0,0,1-6.51,4.36A33.43,33.43,0,0,0,568.3,116a34.32,34.32,0,0,0,7.55-67.7Z"/><ellipse class="cls-1" cx="537.64" cy="81.76" rx="27.4" ry="27.69"/><path class="cls-2" d="M559.48,108a34.46,34.46,0,0,0,0-52.42A33.65,33.65,0,0,0,508.66,64,29.63,29.63,0,0,0,507,67.11a34.45,34.45,0,0,0,0,29.3A33.92,33.92,0,0,0,537.64,116,33.4,33.4,0,0,0,553,112.33,34.11,34.11,0,0,0,559.48,108Zm-21.84-53.9a27.69,27.69,0,1,1-27.4,27.69A27.58,27.58,0,0,1,537.64,54.07Z"/><path class="cls-2" d="M270,157h5.9a6.08,6.08,0,1,0,0-12.15h-7.75v29.9h-5v-35h12.75c7.6,0,11.4,5.6,11.4,11.15a10.54,10.54,0,0,1-9.05,10.7l11.05,13.15h-6.55L270,159.37Z"/><path class="cls-2" d="M306.79,144.57a17.69,17.69,0,0,1,25.25,0,18,18,0,0,1,0,25.3,17.69,17.69,0,0,1-25.25,0,18,18,0,0,1,0-25.3Zm21.65,3.6a12.87,12.87,0,0,0-9.05-3.8,12.55,12.55,0,0,0-8.95,3.8,12.8,12.8,0,0,0,0,18.1,12.55,12.55,0,0,0,8.95,3.8,12.87,12.87,0,0,0,9.05-21.9Z"/><path class="cls-2" d="M357.79,144.77a16.88,16.88,0,0,1,12.1-5.2c8,0,14.3,5,16.3,12.9h-5a11.39,11.39,0,0,0-11.3-7.9,11.91,11.91,0,0,0-8.6,3.75,12.93,12.93,0,0,0,0,17.9,12,12,0,0,0,20.2-4.6h4.95c-2,7.95-8.4,13.35-16.55,13.35a16.68,16.68,0,0,1-12.1-5.2,18.12,18.12,0,0,1,0-25Z"/><path class="cls-2" d="M407,139.77v34.95h-5V139.77ZM408,156l12.2-16.2h6.35l-13.35,17.35,14.75,17.6h-6.6L408,158.52Z"/><path class="cls-2" d="M460.34,158.07c-2,5.7-4.15,11.65-5.95,17h-3.75L439,139.77h5.25L452.59,165l5.75-16.35h4.05l5.7,16.3c2.75-8.35,5.8-17.25,8.4-25.2h5.3L470.14,175h-3.75Z"/><path class="cls-2" d="M513.84,144.77h-6.5v24.9h6.5v5.05H495.79v-5.05h6.5v-24.9h-6.5v-5h18.05Z"/><path class="cls-2" d="M539.23,174.87V144.82h-10.6v-5.1h26.21v5.1H544.29v30.05Z"/><path class="cls-2" d="M575.18,154.52H590V139.77h5.1v34.95H590v-15.2h-14.8v15.2h-5V139.77h5Z"/><path class="cls-2" d="M620.18,174.87V144.82h-10.6v-5.1h26.2v5.1H625.23v30.05Z"/><path class="cls-2" d="M656.13,154.52h14.8V139.77H676v34.95h-5.1v-15.2h-14.8v15.2h-5V139.77h5Z"/><path class="cls-2" d="M709.28,144.77h-6.5v24.9h6.5v5.05h-18v-5.05h6.5v-24.9h-6.5v-5h18Z"/><path class="cls-2" d="M743.43,148.77c-.7-3.15-4.1-4.5-7.15-4.45-2.35.05-4.95.85-6.35,2.65a4.58,4.58,0,0,0-.85,3.25c.25,3.6,4.2,4.05,7.95,4.4,4.8.6,10.75,1.85,12.1,7.45a12.44,12.44,0,0,1,.25,2.3c0,6.75-6.7,10.65-13,10.65-5.4,0-12-3.2-12.6-9.45l0-.95,5.1-.1,0,.75v-.2c.35,3.25,4.3,5,7.55,5,3.75,0,7.85-2.1,7.85-5.7a5.6,5.6,0,0,0-.15-1.2c-.6-2.65-4.2-3.1-7.7-3.45-5.45-.55-11.85-1.75-12.4-9v0a9.47,9.47,0,0,1,1.9-6.65c2.35-3.05,6.55-4.65,10.6-4.65,5.4,0,11,2.8,11.9,9.2Z"/><text class="cls-3" transform="translate(834.5 594.06)"><tspan class="cls-4">h</tspan><tspan x="6.61" y="0">ttps://file</tspan><tspan class="cls-5" x="51.97" y="0">s</tspan><tspan class="cls-6" x="56.59" y="0">.slac</tspan><tspan class="cls-7" x="77.82" y="0">k</tspan><tspan class="cls-6" x="83.61" y="0">.</tspan><tspan class="cls-8" x="86.1" y="0">c</tspan><tspan x="91.4" y="0">om/files-p</tspan><tspan class="cls-9" x="142.5" y="0">r</tspan><tspan x="146.47" y="0">i/T94</tspan><tspan class="cls-10" x="171.67" y="0">A</tspan><tspan class="cls-11" x="178.84" y="0">X</tspan><tspan x="185.35" y="0">GQP6-FFDF6G58T/o</tspan><tspan class="cls-12" x="286" y="0">r</tspan><tspan x="289.98" y="0">i</tspan><tspan class="cls-8" x="292.78" y="0">g</tspan><tspan class="cls-6" x="299.42" y="0">ina</tspan><tspan class="cls-13" x="314.67" y="0">l</tspan><tspan class="cls-6" x="317.38" y="0">.png</tspan></text><path class="cls-2" d="M6.85,950.82h5.9a6.08,6.08,0,1,0,0-12.15H5v29.9H0v-35H12.75c7.6,0,11.4,5.6,11.4,11.15a10.54,10.54,0,0,1-9,10.7l11,13.15H19.6L6.85,953.22Z"/><path class="cls-2" d="M42.2,938.42a17.69,17.69,0,0,1,25.25,0,18,18,0,0,1,0,25.3,17.69,17.69,0,0,1-25.25,0,18,18,0,0,1,0-25.3ZM63.85,942a12.87,12.87,0,0,0-9.05-3.8,12.55,12.55,0,0,0-8.95,3.8,12.8,12.8,0,0,0,0,18.1,12.55,12.55,0,0,0,8.95,3.8A12.87,12.87,0,0,0,63.85,942Z"/><path class="cls-2" d="M86.05,938.62a16.88,16.88,0,0,1,12.1-5.2c8,0,14.3,5,16.3,12.9h-5a11.39,11.39,0,0,0-11.3-7.9,11.91,11.91,0,0,0-8.6,3.75,12.93,12.93,0,0,0,0,17.9,12,12,0,0,0,20.2-4.6h5c-2,7.95-8.4,13.35-16.55,13.35a16.68,16.68,0,0,1-12.1-5.2,18.12,18.12,0,0,1,0-25Z"/><path class="cls-2" d="M134,933.62v35h-5v-35Zm.95,16.2,12.2-16.2h6.35L140.15,951l14.75,17.6h-6.6L135,952.37Z"/><path class="cls-2" d="M189.65,951.92c-2,5.7-4.15,11.65-6,17H180L168.3,933.62h5.25l8.35,25.25,5.75-16.35h4l5.7,16.3c2.75-8.35,5.8-17.25,8.4-25.2h5.3l-11.65,35.25H195.7Z"/><path class="cls-2" d="M245.65,938.62h-6.5v24.9h6.5v5.05H227.6v-5.05h6.5v-24.9h-6.5v-5h18.05Z"/><path class="cls-2" d="M271.05,968.72V938.67h-10.6v-5.1h26.2v5.1H276.1v30.05Z"/><path class="cls-2" d="M307,948.37h14.8V933.62h5.1v35h-5.1v-15.2H307v15.2H302v-35H307Z"/><path class="cls-2" d="M352,968.72V938.67H341.39v-5.1H367.6v5.1H357.05v30.05Z"/><path class="cls-2" d="M388,948.37h14.8V933.62h5.1v35h-5.1v-15.2H388v15.2h-5.06v-35H388Z"/><path class="cls-2" d="M443.39,938.62h-6.5v24.9h6.5v5.05H425.34v-5.05h6.5v-24.9h-6.5v-5h18.05Z"/><path class="cls-2" d="M479.39,942.62c-.7-3.15-4.1-4.5-7.15-4.45-2.35.05-4.95.85-6.35,2.65a4.58,4.58,0,0,0-.85,3.25c.25,3.6,4.2,4,7.95,4.4,4.8.6,10.76,1.85,12.1,7.45a11.63,11.63,0,0,1,.25,2.3c0,6.75-6.7,10.65-13,10.65-5.4,0-11.95-3.2-12.6-9.45l-.05-.95,5.1-.1,0,.75v-.2c.35,3.25,4.3,5,7.55,5,3.75,0,7.85-2.1,7.85-5.7a5.6,5.6,0,0,0-.15-1.2c-.6-2.65-4.2-3.1-7.7-3.45-5.45-.55-11.85-1.75-12.4-9v0a9.47,9.47,0,0,1,1.9-6.65c2.35-3,6.55-4.65,10.6-4.65,5.4,0,11,2.8,11.9,9.2Z"/></g></g></svg>