<svg xmlns="http://www.w3.org/2000/svg" viewBox="0 0 486.25 35.9"><defs><style>.cls-1{fill:#fff;}</style></defs><title>Rock With This_Text</title><g id="Layer_2" data-name="Layer 2"><g id="Layer_10" data-name="Layer 10"><path class="cls-1" d="M6.85,17.7h5.9a6,6,0,0,0,6.35-6.1,6,6,0,0,0-6.35-6H5v29.9H0V.45H12.75c7.6,0,11.4,5.6,11.4,11.15a10.54,10.54,0,0,1-9,10.7l11,13.15H19.6L6.85,20.1Z"/><path class="cls-1" d="M43.65,5.3a17.69,17.69,0,0,1,25.25,0,18,18,0,0,1,0,25.3,17.69,17.69,0,0,1-25.25,0,18,18,0,0,1,0-25.3ZM65.3,8.9a12.87,12.87,0,0,0-9-3.8,12.55,12.55,0,0,0-9,3.8,12.8,12.8,0,0,0,0,18.1,12.55,12.55,0,0,0,9,3.8,12.87,12.87,0,0,0,9-21.9Z"/><path class="cls-1" d="M94.65,5.5A16.88,16.88,0,0,1,106.75.3c8,0,14.3,5,16.3,12.9h-5a11.39,11.39,0,0,0-11.3-7.9,11.91,11.91,0,0,0-8.6,3.75,12.93,12.93,0,0,0,0,17.9,12,12,0,0,0,20.2-4.6h5c-2,8-8.4,13.35-16.55,13.35a16.68,16.68,0,0,1-12.1-5.2,18.12,18.12,0,0,1,0-25Z"/><path class="cls-1" d="M143.9.5v35h-5V.5Zm.95,16.2L157.05.5h6.35L150.05,17.85l14.75,17.6h-6.6l-13.35-16.2Z"/><path class="cls-1" d="M197.2,18.8c-2,5.7-4.15,11.65-5.95,17H187.5L175.85.5h5.25l8.35,25.25L195.2,9.4h4.05L205,25.7c2.75-8.35,5.8-17.25,8.4-25.2h5.3L207,35.75h-3.75Z"/><path class="cls-1" d="M250.7,5.5h-6.5V30.4h6.5v5.05h-18V30.4h6.5V5.5h-6.5V.5h18Z"/><path class="cls-1" d="M276.1,35.6v-30H265.5V.45h26.2v5.1H281.15V35.6Z"/><path class="cls-1" d="M312.05,15.25h14.8V.5H332v35h-5.1V20.25h-14.8v15.2H307V.5h5.05Z"/><path class="cls-1" d="M357.05,35.6v-30h-10.6V.45h26.2v5.1H362.1V35.6Z"/><path class="cls-1" d="M393,15.25h14.8V.5h5.1v35h-5.1V20.25H393v15.2H388V.5H393Z"/><path class="cls-1" d="M446.15,5.5h-6.5V30.4h6.5v5.05H428.09V30.4h6.5V5.5h-6.5V.5h18.06Z"/><path class="cls-1" d="M480.29,9.5c-.7-3.15-4.1-4.5-7.15-4.45-2.35,0-4.95.85-6.35,2.65a4.58,4.58,0,0,0-.85,3.25c.25,3.6,4.2,4.05,7.95,4.4,4.8.6,10.76,1.85,12.11,7.45a12.44,12.44,0,0,1,.25,2.3c0,6.75-6.71,10.65-13,10.65-5.4,0-11.95-3.2-12.6-9.45l-.05-.95,5.1-.1.05.75v-.2c.35,3.25,4.3,4.95,7.55,4.95,3.75,0,7.85-2.1,7.85-5.7a6.24,6.24,0,0,0-.14-1.2c-.61-2.65-4.21-3.1-7.71-3.45-5.45-.55-11.85-1.75-12.4-9v.05a9.47,9.47,0,0,1,1.9-6.65c2.35-3,6.55-4.65,10.6-4.65,5.4,0,11,2.8,11.9,9.2Z"/></g></g></svg>