<svg xmlns="http://www.w3.org/2000/svg" viewBox="0 0 501.99 201.36"><defs><style>.cls-1,.cls-2,.cls-3{fill:#fff;}.cls-1{opacity:0;}.cls-3{font-size:50px;font-family:Code-Pro-Demo, Code Pro Demo;letter-spacing:0.22em;}.cls-4{letter-spacing:0.24em;}.cls-5{letter-spacing:0.21em;}</style></defs><title>RWT-Stacked</title><g id="Layer_2" data-name="Layer 2"><g id="Layer_1-2" data-name="Layer 1"><path class="cls-1" d="M245.69,6.59c-28.53,0-52.84,17.12-61.68,40.89h.35a33.41,33.41,0,0,1,15.33,3.72A33.44,33.44,0,0,1,215,47.47,33.87,33.87,0,0,1,244,64h3.36a33.86,33.86,0,0,1,29-16.49,33.38,33.38,0,0,1,15.33,3.72A33.45,33.45,0,0,1,307,47.47h.35C298.53,23.71,274.22,6.59,245.69,6.59Z"/><path class="cls-2" d="M184,47.48c8.84-23.77,33.15-40.89,61.68-40.89s52.84,17.12,61.68,40.89a33.44,33.44,0,0,1,7.19.86C305.82,20.43,278.25,0,245.69,0s-60.13,20.43-68.87,48.34A33.36,33.36,0,0,1,184,47.48Z"/><path class="cls-2" d="M245.69,67.11A33.77,33.77,0,0,1,247.37,64H244A33.77,33.77,0,0,1,245.69,67.11Z"/><path class="cls-1" d="M157,81.76a27.58,27.58,0,0,0,27.4,27.69,27.22,27.22,0,0,0,8.83-1.48,34.46,34.46,0,0,1,0-52.42,27,27,0,0,0-8.83-1.48A27.58,27.58,0,0,0,157,81.76Z"/><path class="cls-2" d="M193.19,108a27.22,27.22,0,0,1-8.83,1.48,27.69,27.69,0,0,1,0-55.38,27,27,0,0,1,8.83,1.48,33.58,33.58,0,0,1,6.5-4.36,33.41,33.41,0,0,0-15.33-3.72H184a33.36,33.36,0,0,0-7.19.86,34.31,34.31,0,0,0,7.54,67.7,33.4,33.4,0,0,0,15.33-3.71A34,34,0,0,1,193.19,108Z"/><ellipse class="cls-1" cx="215.02" cy="81.76" rx="27.4" ry="27.69"/><path class="cls-2" d="M242.43,81.76A27.41,27.41,0,1,1,215,54.07a27.58,27.58,0,0,1,27.41,27.69,34.32,34.32,0,0,1,3.26-14.65,33.68,33.68,0,0,0-52.5-11.56,34.41,34.41,0,0,0,6.5,56.78A33.43,33.43,0,0,0,215,116a33.93,33.93,0,0,0,30.67-19.63A34.32,34.32,0,0,1,242.43,81.76Z"/><path class="cls-1" d="M310.28,81.76A34.37,34.37,0,0,1,298.19,108a27.18,27.18,0,0,0,8.83,1.48,27.69,27.69,0,0,0,0-55.38,26.91,26.91,0,0,0-8.83,1.48A34.34,34.34,0,0,1,310.28,81.76Z"/><path class="cls-2" d="M314.56,48.34a33.44,33.44,0,0,0-7.19-.86H307a33.45,33.45,0,0,0-15.34,3.72,33.65,33.65,0,0,1,6.51,4.36A26.91,26.91,0,0,1,307,54.07a27.69,27.69,0,0,1,0,55.38,27.18,27.18,0,0,1-8.83-1.48,34.11,34.11,0,0,1-6.51,4.36A33.44,33.44,0,0,0,307,116a34.32,34.32,0,0,0,7.54-67.7Z"/><ellipse class="cls-1" cx="276.35" cy="81.76" rx="27.4" ry="27.69"/><path class="cls-2" d="M298.19,108a34.46,34.46,0,0,0,0-52.42,33.87,33.87,0,0,0-52.5,11.56,34.55,34.55,0,0,0,0,29.3A33.92,33.92,0,0,0,276.35,116a33.37,33.37,0,0,0,15.33-3.71A34.11,34.11,0,0,0,298.19,108Zm-21.84-53.9A27.69,27.69,0,1,1,249,81.76,27.58,27.58,0,0,1,276.35,54.07Z"/><text class="cls-3" transform="translate(0 174.72)">ROCKW<tspan class="cls-4" x="233.8" y="0">I</tspan><tspan x="267.35" y="0">THTH</tspan><tspan class="cls-5" x="429.24" y="0">I</tspan><tspan x="461.24" y="0">S</tspan></text></g></g></svg>