<svg xmlns="http://www.w3.org/2000/svg" viewBox="0 0 608 59.16"><defs><style>.cls-1{font-size:50px;font-family:Code-Pro-Demo, Code Pro Demo;letter-spacing:0.22em;}.cls-1,.cls-4,.cls-5{fill:#fff;}.cls-2{letter-spacing:0.24em;}.cls-3{letter-spacing:0.21em;}.cls-4{opacity:0;}</style></defs><title>RWT_Horizontal</title><g id="Layer_2" data-name="Layer 2"><g id="Layer_10" data-name="Layer 10"><text class="cls-1" transform="translate(106 47.86)">ROCKW<tspan class="cls-2" x="233.8" y="0">I</tspan><tspan x="267.35" y="0">THTH</tspan><tspan class="cls-3" x="429.24" y="0">I</tspan><tspan x="461.24" y="0">S</tspan></text><path class="cls-4" d="M45.1,3.12c-13.51,0-25,8.11-29.2,19.36h.16a15.82,15.82,0,0,1,7.26,1.76,15.89,15.89,0,0,1,7.26-1.76,16.06,16.06,0,0,1,13.73,7.8H45.9a16,16,0,0,1,13.72-7.8,15.85,15.85,0,0,1,7.26,1.76,15.85,15.85,0,0,1,7.26-1.76h.17C70.12,11.23,58.61,3.12,45.1,3.12Z"/><path class="cls-5" d="M15.9,22.48C20.08,11.23,31.59,3.12,45.1,3.12s25,8.11,29.21,19.36a15.21,15.21,0,0,1,3.4.41C73.57,9.68,60.52,0,45.1,0S16.63,9.68,12.49,22.89A15.37,15.37,0,0,1,15.9,22.48Z"/><path class="cls-5" d="M45.1,31.77a16.38,16.38,0,0,1,.8-1.49H44.31A16.29,16.29,0,0,1,45.1,31.77Z"/><path class="cls-4" d="M3.09,38.71a13.06,13.06,0,0,0,13,13.11,12.56,12.56,0,0,0,4.18-.7,16.32,16.32,0,0,1,0-24.82,12.82,12.82,0,0,0-4.18-.7A13.06,13.06,0,0,0,3.09,38.71Z"/><path class="cls-5" d="M20.24,51.12a12.56,12.56,0,0,1-4.18.7,13.11,13.11,0,0,1,0-26.22,12.82,12.82,0,0,1,4.18.7,16.39,16.39,0,0,1,3.08-2.06,15.82,15.82,0,0,0-7.26-1.76H15.9a15.37,15.37,0,0,0-3.41.41A16.25,16.25,0,0,0,16.06,55a15.82,15.82,0,0,0,7.26-1.76A16.44,16.44,0,0,1,20.24,51.12Z"/><ellipse class="cls-4" cx="30.58" cy="38.71" rx="12.97" ry="13.11"/><path class="cls-5" d="M43.56,38.71a13,13,0,1,1-13-13.11,13.06,13.06,0,0,1,13,13.11,16.29,16.29,0,0,1,1.54-6.94,16.29,16.29,0,0,0-.79-1.49,16.06,16.06,0,0,0-13.73-7.8,15.89,15.89,0,0,0-7.26,1.76,16.3,16.3,0,0,0,0,29A15.89,15.89,0,0,0,30.58,55a16.07,16.07,0,0,0,14.52-9.3A16.25,16.25,0,0,1,43.56,38.71Z"/><path class="cls-4" d="M75.69,38.71A16.26,16.26,0,0,1,70,51.12a12.6,12.6,0,0,0,4.18.7,13.11,13.11,0,0,0,0-26.22,12.86,12.86,0,0,0-4.18.7A16.27,16.27,0,0,1,75.69,38.71Z"/><path class="cls-5" d="M77.71,22.89a15.21,15.21,0,0,0-3.4-.41h-.17a15.85,15.85,0,0,0-7.26,1.76A16.07,16.07,0,0,1,70,26.3a12.86,12.86,0,0,1,4.18-.7,13.11,13.11,0,0,1,0,26.22,12.6,12.6,0,0,1-4.18-.7,16.12,16.12,0,0,1-3.08,2.07A15.85,15.85,0,0,0,74.14,55a16.25,16.25,0,0,0,3.57-32.06Z"/><ellipse class="cls-4" cx="59.62" cy="38.71" rx="12.97" ry="13.11"/><path class="cls-5" d="M70,51.12A16.3,16.3,0,0,0,70,26.3a16.07,16.07,0,0,0-3.08-2.06,15.85,15.85,0,0,0-7.26-1.76,16,16,0,0,0-13.72,7.8,16.38,16.38,0,0,0-.8,15.37A16.08,16.08,0,0,0,59.62,55a15.85,15.85,0,0,0,7.26-1.76A16.12,16.12,0,0,0,70,51.12ZM59.62,25.6a13.11,13.11,0,1,1-13,13.11A13.06,13.06,0,0,1,59.62,25.6Z"/></g></g></svg>