<svg xmlns="http://www.w3.org/2000/svg" viewBox="0 0 592.31 52.86"><defs><style>.cls-1,.cls-2,.cls-3{fill:#fff;}.cls-2,.cls-3{stroke:#fff;stroke-miterlimit:10;}.cls-2{opacity:0;}</style></defs><title>RWT_Horizontal_6</title><g id="Layer_2" data-name="Layer 2"><g id="Layer_1-2" data-name="Layer 1"><path class="cls-1" d="M113.81,28.79h5.9a6,6,0,0,0,6.35-6.1,6,6,0,0,0-6.35-6.05H112v29.9h-5v-35h12.75c7.6,0,11.4,5.6,11.4,11.15a10.54,10.54,0,0,1-9.05,10.7l11.05,13.15h-6.55L113.81,31.19Z"/><path class="cls-1" d="M149.16,16.39a17.69,17.69,0,0,1,25.25,0,18,18,0,0,1,0,25.3,17.69,17.69,0,0,1-25.25,0,18,18,0,0,1,0-25.3ZM170.81,20a12.87,12.87,0,0,0-9.05-3.8,12.55,12.55,0,0,0-8.95,3.8,12.8,12.8,0,0,0,0,18.1,12.55,12.55,0,0,0,8.95,3.8A12.87,12.87,0,0,0,170.81,20Z"/><path class="cls-1" d="M193,16.59a16.88,16.88,0,0,1,12.1-5.2c8,0,14.3,5,16.3,12.9h-5a11.39,11.39,0,0,0-11.3-7.9,11.91,11.91,0,0,0-8.6,3.75,12.93,12.93,0,0,0,0,17.9,12,12,0,0,0,20.2-4.6h4.95c-2,8-8.4,13.35-16.55,13.35a16.68,16.68,0,0,1-12.1-5.2,18.12,18.12,0,0,1,0-25Z"/><path class="cls-1" d="M241,11.59v35h-5V11.59Zm.95,16.2,12.2-16.2h6.35L247.11,28.94l14.75,17.6h-6.6l-13.35-16.2Z"/><path class="cls-1" d="M296.61,29.89c-2,5.7-4.15,11.65-5.95,17h-3.75L275.26,11.59h5.25l8.35,25.25,5.75-16.35h4.05l5.7,16.3c2.75-8.35,5.8-17.25,8.4-25.2h5.3L306.41,46.84h-3.75Z"/><path class="cls-1" d="M352.61,16.59h-6.5v24.9h6.5v5H334.56v-5h6.5V16.59h-6.5v-5h18.05Z"/><path class="cls-1" d="M378,46.69v-30h-10.6v-5.1h26.2v5.1H383.06V46.69Z"/><path class="cls-1" d="M414,26.34h14.8V11.59h5.1v35h-5.1V31.34H414v15.2h-5V11.59h5Z"/><path class="cls-1" d="M459,46.69v-30h-10.6v-5.1h26.2v5.1H464V46.69Z"/><path class="cls-1" d="M494.91,26.34h14.8V11.59h5.1v35h-5.1V31.34h-14.8v15.2h-5.05V11.59h5.05Z"/><path class="cls-1" d="M550.36,16.59h-6.5v24.9h6.5v5H532.31v-5h6.5V16.59h-6.5v-5h18.05Z"/><path class="cls-1" d="M586.36,20.59c-.7-3.15-4.1-4.5-7.15-4.45-2.35.05-5,.85-6.35,2.65A4.58,4.58,0,0,0,572,22c.25,3.6,4.2,4.05,8,4.4,4.8.6,10.75,1.85,12.1,7.45a12.44,12.44,0,0,1,.25,2.3c0,6.75-6.7,10.65-13,10.65-5.4,0-11.95-3.2-12.6-9.45l-.05-1,5.1-.1,0,.75v-.2c.35,3.25,4.3,5,7.55,5,3.75,0,7.85-2.1,7.85-5.7a5.6,5.6,0,0,0-.15-1.2c-.6-2.65-4.2-3.1-7.7-3.45-5.45-.55-11.85-1.75-12.4-9v0a9.47,9.47,0,0,1,1.9-6.65c2.35-3.05,6.55-4.65,10.6-4.65,5.4,0,11,2.8,11.9,9.2Z"/><path class="cls-2" d="M43.07,3.45c-12.75,0-23.62,7.65-27.57,18.27h.16a14.91,14.91,0,0,1,6.85,1.67,14.94,14.94,0,0,1,6.85-1.67,15.16,15.16,0,0,1,13,7.37h1.5a15.13,15.13,0,0,1,13-7.37,14.91,14.91,0,0,1,6.85,1.67,14.94,14.94,0,0,1,6.85-1.67h.16C66.68,11.1,55.82,3.45,43.07,3.45Z"/><path class="cls-3" d="M15.5,21.72C19.45,11.1,30.32,3.45,43.07,3.45S66.68,11.1,70.63,21.72a14.93,14.93,0,0,1,3.22.38C69.94,9.63,57.62.5,43.07.5S16.2,9.63,12.29,22.1A14.84,14.84,0,0,1,15.5,21.72Z"/><path class="cls-3" d="M43.07,30.49a11.86,11.86,0,0,1,.75-1.41h-1.5A15.72,15.72,0,0,1,43.07,30.49Z"/><path class="cls-2" d="M3.42,37A12.32,12.32,0,0,0,15.66,49.41a12,12,0,0,0,3.95-.66,15.39,15.39,0,0,1,0-23.43A12.23,12.23,0,0,0,3.42,37Z"/><path class="cls-3" d="M19.61,48.75a12,12,0,0,1-3.95.66,12.38,12.38,0,1,1,3.95-24.09,15,15,0,0,1,2.9-1.94,14.91,14.91,0,0,0-6.85-1.67H15.5a14.84,14.84,0,0,0-3.21.38,15.34,15.34,0,0,0,3.37,30.26,14.9,14.9,0,0,0,6.85-1.66A15,15,0,0,1,19.61,48.75Z"/><ellipse class="cls-2" cx="29.36" cy="37.04" rx="12.25" ry="12.38"/><path class="cls-3" d="M41.61,37A12.25,12.25,0,1,1,29.36,24.66,12.32,12.32,0,0,1,41.61,37a15.26,15.26,0,0,1,1.46-6.55,15.72,15.72,0,0,0-.75-1.41,15.16,15.16,0,0,0-13-7.37,15.14,15.14,0,0,0-9.75,3.61,15.39,15.39,0,0,0,0,23.43,15.05,15.05,0,0,0,23.46-5.16A15.29,15.29,0,0,1,41.61,37Z"/><path class="cls-2" d="M71.93,37a15.35,15.35,0,0,1-5.4,11.71,12,12,0,0,0,3.94.66,12.38,12.38,0,1,0-3.94-24.09A15.37,15.37,0,0,1,71.93,37Z"/><path class="cls-3" d="M73.85,22.1a14.93,14.93,0,0,0-3.22-.38h-.16a14.94,14.94,0,0,0-6.85,1.67,15.05,15.05,0,0,1,2.91,1.94,12.35,12.35,0,1,1,3.94,24.09,12,12,0,0,1-3.94-.66,15.1,15.1,0,0,1-2.91,2,14.94,14.94,0,0,0,6.85,1.66A15.34,15.34,0,0,0,73.85,22.1Z"/><ellipse class="cls-2" cx="56.77" cy="37.04" rx="12.25" ry="12.38"/><path class="cls-3" d="M66.53,48.75a15.41,15.41,0,0,0,0-23.43,15,15,0,0,0-22.71,3.76,11.86,11.86,0,0,0-.75,1.41,15.32,15.32,0,0,0,13.7,21.87,14.9,14.9,0,0,0,6.85-1.66A15.1,15.1,0,0,0,66.53,48.75ZM56.77,24.66A12.38,12.38,0,1,1,44.53,37,12.33,12.33,0,0,1,56.77,24.66Z"/></g></g></svg>