<svg xmlns="http://www.w3.org/2000/svg" viewBox="0 0 485.34 172.72"><defs><style>.cls-1{fill:#fff;}.cls-2{opacity:0;}</style></defs><title>RWT_Stacked</title><g id="Layer_2" data-name="Layer 2"><g id="Layer_3" data-name="Layer 3"><path class="cls-1" d="M6.85,154.52h5.9a6.09,6.09,0,1,0,0-12.16H5v29.91H0v-35H12.75c7.6,0,11.4,5.6,11.4,11.15a10.53,10.53,0,0,1-9,10.7l11,13.16H19.6L6.85,156.91Z"/><path class="cls-1" d="M42.2,142.11a17.69,17.69,0,0,1,25.25,0,18,18,0,0,1,0,25.31,17.69,17.69,0,0,1-25.25,0,18,18,0,0,1,0-25.31Zm21.65,3.6a12.87,12.87,0,0,0-9.05-3.8,12.55,12.55,0,0,0-8.95,3.8,12.81,12.81,0,0,0,0,18.11,12.54,12.54,0,0,0,8.95,3.79,12.87,12.87,0,0,0,9.05-21.9Z"/><path class="cls-1" d="M86.05,142.31a16.88,16.88,0,0,1,12.1-5.2c8,0,14.3,5,16.3,12.9h-5a11.39,11.39,0,0,0-11.3-7.9,11.91,11.91,0,0,0-8.6,3.75,12.94,12.94,0,0,0,0,17.91,12,12,0,0,0,20.2-4.6h5c-2,7.94-8.4,13.35-16.55,13.35a16.68,16.68,0,0,1-12.1-5.2,18.14,18.14,0,0,1,0-25Z"/><path class="cls-1" d="M134,137.31v35h-5v-35Zm.95,16.21,12.2-16.21h6.35l-13.35,17.35,14.75,17.61h-6.6L135,156.06Z"/><path class="cls-1" d="M189.65,155.61c-2,5.71-4.15,11.66-6,17H180L168.3,137.31h5.25l8.35,25.26,5.75-16.36h4l5.7,16.31c2.75-8.36,5.8-17.26,8.4-25.21h5.3l-11.65,35.26H195.7Z"/><path class="cls-1" d="M245.65,142.31h-6.5v24.91h6.5v5.05H227.6v-5.05h6.5V142.31h-6.5v-5h18.05Z"/><path class="cls-1" d="M271.05,172.42V142.36h-10.6v-5.1h26.2v5.1H276.1v30.06Z"/><path class="cls-1" d="M307,152.06h14.8V137.31h5.1v35h-5.1V157.06H307v15.21H302v-35H307Z"/><path class="cls-1" d="M352,172.42V142.36H341.39v-5.1H367.6v5.1H357.05v30.06Z"/><path class="cls-1" d="M388,152.06h14.8V137.31h5.1v35h-5.1V157.06H388v15.21h-5.06v-35H388Z"/><path class="cls-1" d="M443.39,142.31h-6.5v24.91h6.5v5.05H425.34v-5.05h6.5V142.31h-6.5v-5h18.05Z"/><path class="cls-1" d="M479.39,146.31c-.7-3.15-4.1-4.5-7.15-4.45-2.35,0-4.95.85-6.35,2.65a4.58,4.58,0,0,0-.85,3.25c.25,3.6,4.2,4.05,7.95,4.4,4.8.61,10.76,1.86,12.1,7.45a11.65,11.65,0,0,1,.25,2.31c0,6.75-6.7,10.65-13,10.65-5.4,0-11.95-3.21-12.6-9.46l-.05-.94,5.1-.1,0,.75v-.21c.35,3.25,4.3,5,7.55,5,3.75,0,7.85-2.1,7.85-5.71a5.52,5.52,0,0,0-.15-1.19c-.6-2.65-4.2-3.1-7.7-3.46-5.45-.55-11.85-1.75-12.4-9.05v.05a9.47,9.47,0,0,1,1.9-6.65c2.35-3.05,6.55-4.65,10.6-4.65,5.4,0,11,2.8,11.9,9.2Z"/><g class="cls-2"><path class="cls-1" d="M244.06,6.93c-27.58,0-51.08,16.55-59.63,39.53h.34A32.28,32.28,0,0,1,199.59,50a32.34,32.34,0,0,1,14.82-3.59,32.72,32.72,0,0,1,28,15.93h3.25a32.72,32.72,0,0,1,28-15.93A32.34,32.34,0,0,1,288.52,50a32.31,32.31,0,0,1,14.82-3.59h.34C295.13,23.48,271.64,6.93,244.06,6.93Z"/><path class="cls-1" d="M246,62.94h-3.87l-.17-.27A32,32,0,0,0,214.42,47a31.43,31.43,0,0,0-14.57,3.53l-.26.13-.25-.13A31.46,31.46,0,0,0,184.77,47h-1.14l.28-.76c8.87-23.86,33-39.89,60.15-39.89s51.27,16,60.14,39.89l.28.76h-1.14a31.49,31.49,0,0,0-14.57,3.53l-.25.13-.26-.13A31.42,31.42,0,0,0,273.7,47a32,32,0,0,0-27.54,15.66Zm-3.25-1.12h2.63A33.06,33.06,0,0,1,273.7,45.89a32.63,32.63,0,0,1,14.82,3.52,32.72,32.72,0,0,1,14.35-3.52c-8.94-23-32.46-38.4-58.81-38.4s-49.88,15.4-58.82,38.4a32.72,32.72,0,0,1,14.35,3.52,32.67,32.67,0,0,1,14.83-3.52A33.07,33.07,0,0,1,242.74,61.82Z"/></g><path class="cls-1" d="M184.43,46.46c8.55-23,32-39.53,59.63-39.53s51.07,16.55,59.62,39.53a32.55,32.55,0,0,1,6.95.82C302.18,20.31,275.54.56,244.06.56s-58.13,19.75-66.58,46.72A32.55,32.55,0,0,1,184.43,46.46Z"/><path class="cls-1" d="M311.45,48.05l-.94-.22a32.14,32.14,0,0,0-6.84-.82h-.38l-.14-.36c-8.71-23.42-32.46-39.16-59.09-39.16S193.67,23.23,185,46.65l-.14.36h-.38a32.12,32.12,0,0,0-6.83.82l-1,.22.29-.93C185.64,19.38,213.23,0,244.06,0s58.41,19.38,67.1,47.12Zm-7.38-2.15a33.51,33.51,0,0,1,5.73.64c-8.86-26.8-35.75-45.42-65.74-45.42s-56.89,18.62-65.75,45.42A33.51,33.51,0,0,1,184,45.9c9-23.66,33.05-39.53,60-39.53S295.09,22.24,304.07,45.9Z"/><path class="cls-1" d="M244.06,65.42a34,34,0,0,1,1.62-3h-3.25C243,63.36,243.56,64.38,244.06,65.42Z"/><path class="cls-1" d="M244.05,66.74l-.5-1.08a32.76,32.76,0,0,0-1.6-3l-.51-.85h5.23l-.51.85a32.58,32.58,0,0,0-1.6,3Zm-.65-3.8c.23.4.44.8.66,1.22.21-.42.42-.82.65-1.22Z"/><g class="cls-2"><path class="cls-1" d="M158.29,79.59a26.66,26.66,0,0,0,26.48,26.77,26.25,26.25,0,0,0,8.54-1.43,33.31,33.31,0,0,1,0-50.68,26.25,26.25,0,0,0-8.54-1.43A26.66,26.66,0,0,0,158.29,79.59Z"/><path class="cls-1" d="M184.77,106.92a27.33,27.33,0,0,1,0-54.66,26.48,26.48,0,0,1,8.72,1.47l.92.31-.74.64a32.75,32.75,0,0,0,0,49.82l.74.63-.92.32A26.74,26.74,0,0,1,184.77,106.92Zm0-53.54a26.21,26.21,0,0,0,0,52.42,25.61,25.61,0,0,0,7.43-1.1,33.87,33.87,0,0,1,0-50.22A25.61,25.61,0,0,0,184.77,53.38Z"/></g><path class="cls-1" d="M193.31,104.93a26.25,26.25,0,0,1-8.54,1.43,26.77,26.77,0,0,1,0-53.54,26.25,26.25,0,0,1,8.54,1.43A33.29,33.29,0,0,1,199.59,50a32.28,32.28,0,0,0-14.82-3.59h-.34a32.55,32.55,0,0,0-7,.82,33.18,33.18,0,0,0,7.29,65.45,32.28,32.28,0,0,0,14.82-3.59A33.29,33.29,0,0,1,193.31,104.93Z"/><path class="cls-1" d="M184.77,113.29a33.73,33.73,0,0,1-7.41-66.55,32.93,32.93,0,0,1,7.07-.84h.34a32.71,32.71,0,0,1,15.08,3.65l1,.5-1,.5a32.08,32.08,0,0,0-6.18,4.14l-.25.21-.3-.11a25.5,25.5,0,0,0-8.35-1.4,26.21,26.21,0,0,0,0,52.42,25.54,25.54,0,0,0,8.35-1.4l.3-.11.25.21a32.55,32.55,0,0,0,6.18,4.14l1,.5-1,.5A32.71,32.71,0,0,1,184.77,113.29Zm0-66.28h-.33a32.12,32.12,0,0,0-6.83.82,32.61,32.61,0,0,0,7.16,64.34,31.4,31.4,0,0,0,13.6-3,33.91,33.91,0,0,1-5.19-3.57,26.46,26.46,0,0,1-8.41,1.37,27.33,27.33,0,0,1,0-54.66,26.84,26.84,0,0,1,8.42,1.36,34,34,0,0,1,5.18-3.56A31.4,31.4,0,0,0,184.77,47Z"/><g class="cls-2"><ellipse class="cls-1" cx="214.41" cy="79.59" rx="26.49" ry="26.77"/><path class="cls-1" d="M214.42,106.92a27.33,27.33,0,1,1,27-27.33A27.22,27.22,0,0,1,214.42,106.92Zm0-53.54a26.21,26.21,0,1,0,25.92,26.21A26.11,26.11,0,0,0,214.42,53.38Z"/></g><path class="cls-1" d="M240.9,79.59a26.49,26.49,0,1,1-26.49-26.77A26.66,26.66,0,0,1,240.9,79.59a33.24,33.24,0,0,1,3.16-14.17c-.5-1-1-2.06-1.63-3a32.72,32.72,0,0,0-28-15.93A32.34,32.34,0,0,0,199.59,50a33.26,33.26,0,0,0,0,59.1,32.34,32.34,0,0,0,14.82,3.59,32.82,32.82,0,0,0,29.65-19A33.19,33.19,0,0,1,240.9,79.59Z"/><path class="cls-1" d="M214.42,113.29a32.68,32.68,0,0,1-15.08-3.65,33.81,33.81,0,0,1,0-60.1,32.68,32.68,0,0,1,15.08-3.65,33.11,33.11,0,0,1,28.49,16.2c.59,1,1.15,2,1.65,3.1l.11.23-.11.24a32.85,32.85,0,0,0,0,27.86l.11.23-.11.24A33.52,33.52,0,0,1,214.42,113.29Zm0-66.28a31.43,31.43,0,0,0-14.57,3.53,32.08,32.08,0,0,0-6.18,4.14,32.69,32.69,0,0,0,6.18,54,31.43,31.43,0,0,0,14.57,3.53,32.39,32.39,0,0,0,29-18.42,33.83,33.83,0,0,1-2.6-8.33,27.33,27.33,0,1,1,0-11.66,33.7,33.7,0,0,1,2.6-8.33c-.46-1-1-1.88-1.49-2.76A32,32,0,0,0,214.42,47Zm0,6.37a26.21,26.21,0,1,0,25.92,26.21A26.11,26.11,0,0,0,214.42,53.38Z"/><g class="cls-2"><path class="cls-1" d="M306.49,79.59a33.27,33.27,0,0,1-11.68,25.34,26.19,26.19,0,0,0,8.53,1.43,26.77,26.77,0,0,0,0-53.54,26.19,26.19,0,0,0-8.53,1.43A33.27,33.27,0,0,1,306.49,79.59Z"/><path class="cls-1" d="M303.34,106.92a26.74,26.74,0,0,1-8.72-1.47l-.92-.32.74-.63a32.75,32.75,0,0,0,0-49.82L293.7,54l.92-.31a26.48,26.48,0,0,1,8.72-1.47,27.33,27.33,0,0,1,0,54.66Zm-7.43-2.22a25.66,25.66,0,0,0,7.43,1.1,26.21,26.21,0,0,0,0-52.42,25.66,25.66,0,0,0-7.43,1.1,33.87,33.87,0,0,1,0,50.22Z"/></g><path class="cls-1" d="M310.63,47.28a32.55,32.55,0,0,0-6.95-.82h-.34A32.31,32.31,0,0,0,288.52,50a33,33,0,0,1,6.29,4.21,26.19,26.19,0,0,1,8.53-1.43,26.77,26.77,0,0,1,0,53.54,26.19,26.19,0,0,1-8.53-1.43,33,33,0,0,1-6.29,4.21,32.31,32.31,0,0,0,14.82,3.59,33.18,33.18,0,0,0,7.29-65.45Z"/><path class="cls-1" d="M303.34,113.29a32.74,32.74,0,0,1-15.08-3.65l-1-.5,1-.5a32.08,32.08,0,0,0,6.18-4.14l.25-.21.3.11a25.59,25.59,0,0,0,8.35,1.4,26.21,26.21,0,0,0,0-52.42,25.59,25.59,0,0,0-8.35,1.4l-.3.11-.25-.21a32.08,32.08,0,0,0-6.18-4.14l-1-.5,1-.5a32.74,32.74,0,0,1,15.08-3.65h.34a33.09,33.09,0,0,1,7.08.84h0a33.73,33.73,0,0,1-7.42,66.55Zm-13.6-4.17a31.47,31.47,0,0,0,13.6,3A32.58,32.58,0,0,0,303.67,47h-.33a31.47,31.47,0,0,0-13.6,3.05,34.57,34.57,0,0,1,5.19,3.56,26.73,26.73,0,0,1,8.41-1.36,27.33,27.33,0,0,1,0,54.66,26.46,26.46,0,0,1-8.41-1.37A33.91,33.91,0,0,1,289.74,109.12Z"/><g class="cls-2"><ellipse class="cls-1" cx="273.7" cy="79.59" rx="26.49" ry="26.77"/><path class="cls-1" d="M273.7,106.92a27.33,27.33,0,1,1,27-27.33A27.22,27.22,0,0,1,273.7,106.92Zm0-53.54a26.21,26.21,0,1,0,25.93,26.21A26.1,26.1,0,0,0,273.7,53.38Z"/></g><path class="cls-1" d="M294.81,104.93A33.24,33.24,0,0,0,288.52,50a32.34,32.34,0,0,0-14.82-3.59,32.72,32.72,0,0,0-28,15.93,34,34,0,0,0-1.62,3,33.33,33.33,0,0,0,0,28.33,32.8,32.8,0,0,0,29.64,19,32.34,32.34,0,0,0,14.82-3.59A33,33,0,0,0,294.81,104.93ZM273.7,52.82a26.77,26.77,0,1,1-26.49,26.77A26.66,26.66,0,0,1,273.7,52.82Z"/><path class="cls-1" d="M273.7,113.29a33.8,33.8,0,0,1-28.5-51.2,33.11,33.11,0,0,1,28.5-16.2,32.67,32.67,0,0,1,15.07,3.65,33.85,33.85,0,0,1,6.4,55.81h0a33.61,33.61,0,0,1-6.4,4.29A32.67,32.67,0,0,1,273.7,113.29Zm0-66.28a32,32,0,0,0-27.54,15.66,32.59,32.59,0,0,0,27.54,49.5,31.42,31.42,0,0,0,14.56-3.53,32.08,32.08,0,0,0,6.18-4.14h0a32.75,32.75,0,0,0,0-49.82,32.08,32.08,0,0,0-6.18-4.14A31.42,31.42,0,0,0,273.7,47Zm0,59.91a27.33,27.33,0,1,1,27-27.33A27.22,27.22,0,0,1,273.7,106.92Zm0-53.54a26.21,26.21,0,1,0,25.93,26.21A26.1,26.1,0,0,0,273.7,53.38Z"/></g></g></svg>