<svg xmlns="http://www.w3.org/2000/svg" viewBox="0 0 594.26 56.15"><defs><style>.cls-1,.cls-2,.cls-3,.cls-4{fill:#fff;}.cls-2,.cls-3{opacity:0;}.cls-3,.cls-4{stroke:#fff;stroke-miterlimit:10;}</style></defs><title>RWT_Horizontal_3</title><g id="Layer_2" data-name="Layer 2"><g id="Layer_10" data-name="Layer 10"><path class="cls-1" d="M114.86,30.11h5.9a6,6,0,0,0,6.35-6.1A6,6,0,0,0,120.76,18H113v29.9h-5v-35h12.75c7.6,0,11.4,5.6,11.4,11.15a10.54,10.54,0,0,1-9,10.7l11,13.15h-6.55L114.86,32.51Z"/><path class="cls-1" d="M151.66,17.71a17.69,17.69,0,0,1,25.25,0,18,18,0,0,1,0,25.3,17.69,17.69,0,0,1-25.25,0,18,18,0,0,1,0-25.3Zm21.65,3.6a12.87,12.87,0,0,0-9.05-3.8,12.55,12.55,0,0,0-8.95,3.8,12.8,12.8,0,0,0,0,18.1,12.55,12.55,0,0,0,8.95,3.8,12.87,12.87,0,0,0,9.05-21.9Z"/><path class="cls-1" d="M202.66,17.91a16.88,16.88,0,0,1,12.1-5.2c8,0,14.3,5,16.3,12.9h-5a11.39,11.39,0,0,0-11.3-7.9,11.91,11.91,0,0,0-8.6,3.75,12.93,12.93,0,0,0,0,17.9,12,12,0,0,0,20.2-4.6h4.95c-2,8-8.4,13.35-16.55,13.35a16.68,16.68,0,0,1-12.1-5.2,18.12,18.12,0,0,1,0-25Z"/><path class="cls-1" d="M251.91,12.91v35h-5V12.91Zm1,16.2,12.2-16.2h6.35L258.06,30.26l14.75,17.6h-6.6l-13.35-16.2Z"/><path class="cls-1" d="M305.21,31.21c-2,5.7-4.15,11.65-5.95,16.95h-3.75L283.86,12.91h5.25l8.35,25.25,5.75-16.35h4.05l5.7,16.3c2.75-8.35,5.8-17.25,8.4-25.2h5.3L315,48.16h-3.75Z"/><path class="cls-1" d="M358.71,17.91h-6.5v24.9h6.5v5h-18v-5h6.5V17.91h-6.5v-5h18Z"/><path class="cls-1" d="M384.11,48V18h-10.6v-5.1h26.2V18H389.16V48Z"/><path class="cls-1" d="M420.06,27.66h14.8V12.91H440v35h-5.1V32.66h-14.8v15.2H415V12.91h5.05Z"/><path class="cls-1" d="M465.06,48V18h-10.6v-5.1h26.2V18H470.11V48Z"/><path class="cls-1" d="M501,27.66h14.8V12.91h5.1v35h-5.1V32.66H501v15.2H496V12.91H501Z"/><path class="cls-1" d="M554.16,17.91h-6.5v24.9h6.5v5h-18v-5h6.5V17.91h-6.5v-5h18Z"/><path class="cls-1" d="M588.31,21.91c-.7-3.15-4.1-4.5-7.15-4.45-2.35.05-4.95.85-6.35,2.65a4.58,4.58,0,0,0-.85,3.25c.25,3.6,4.2,4.05,7.95,4.4,4.8.6,10.75,1.85,12.1,7.45a12.44,12.44,0,0,1,.25,2.3c0,6.75-6.7,10.65-13,10.65-5.4,0-12-3.2-12.6-9.45l0-1,5.1-.1,0,.75v-.2c.35,3.25,4.3,4.95,7.55,4.95,3.75,0,7.85-2.1,7.85-5.7a5.6,5.6,0,0,0-.15-1.2c-.6-2.65-4.2-3.1-7.7-3.45-5.45-.55-11.85-1.75-12.4-9v0a9.47,9.47,0,0,1,1.9-6.65c2.35-3.05,6.55-4.65,10.6-4.65,5.4,0,11,2.8,11.9,9.2Z"/><path class="cls-2" d="M45.26,3.12c-13.51,0-25,8.11-29.2,19.36h.16a15.82,15.82,0,0,1,7.26,1.76,15.89,15.89,0,0,1,7.26-1.76,16.06,16.06,0,0,1,13.73,7.8h1.59a16,16,0,0,1,13.72-7.8A15.85,15.85,0,0,1,67,24.24a15.85,15.85,0,0,1,7.26-1.76h.17C70.28,11.23,58.77,3.12,45.26,3.12Z"/><path class="cls-1" d="M16.06,22.48C20.24,11.23,31.75,3.12,45.26,3.12s25,8.11,29.21,19.36a15.21,15.21,0,0,1,3.4.41C73.73,9.68,60.68,0,45.26,0S16.79,9.68,12.65,22.89A15.37,15.37,0,0,1,16.06,22.48Z"/><path class="cls-1" d="M45.26,31.77a16.38,16.38,0,0,1,.8-1.49H44.47A16.29,16.29,0,0,1,45.26,31.77Z"/><path class="cls-2" d="M3.25,38.71a13.06,13.06,0,0,0,13,13.11,12.56,12.56,0,0,0,4.18-.7,16.32,16.32,0,0,1,0-24.82,12.82,12.82,0,0,0-4.18-.7A13.06,13.06,0,0,0,3.25,38.71Z"/><path class="cls-1" d="M20.4,51.12a12.56,12.56,0,0,1-4.18.7,13.11,13.11,0,0,1,0-26.22,12.82,12.82,0,0,1,4.18.7,16.39,16.39,0,0,1,3.08-2.06,15.82,15.82,0,0,0-7.26-1.76h-.16a15.37,15.37,0,0,0-3.41.41A16.25,16.25,0,0,0,16.22,55a15.82,15.82,0,0,0,7.26-1.76A16.44,16.44,0,0,1,20.4,51.12Z"/><ellipse class="cls-2" cx="30.74" cy="38.71" rx="12.97" ry="13.11"/><path class="cls-1" d="M43.72,38.71a13,13,0,1,1-13-13.11,13.06,13.06,0,0,1,13,13.11,16.29,16.29,0,0,1,1.54-6.94,16.29,16.29,0,0,0-.79-1.49,16.06,16.06,0,0,0-13.73-7.8,15.89,15.89,0,0,0-7.26,1.76,16.3,16.3,0,0,0,0,29A15.89,15.89,0,0,0,30.74,55a16.07,16.07,0,0,0,14.52-9.3A16.25,16.25,0,0,1,43.72,38.71Z"/><path class="cls-2" d="M75.85,38.71a16.26,16.26,0,0,1-5.73,12.41,12.6,12.6,0,0,0,4.18.7,13.11,13.11,0,0,0,0-26.22,12.86,12.86,0,0,0-4.18.7A16.27,16.27,0,0,1,75.85,38.71Z"/><path class="cls-1" d="M77.87,22.89a15.21,15.21,0,0,0-3.4-.41H74.3A15.85,15.85,0,0,0,67,24.24a16.07,16.07,0,0,1,3.08,2.06,12.86,12.86,0,0,1,4.18-.7,13.11,13.11,0,0,1,0,26.22,12.6,12.6,0,0,1-4.18-.7A16.12,16.12,0,0,1,67,53.19,15.85,15.85,0,0,0,74.3,55a16.25,16.25,0,0,0,3.57-32.06Z"/><ellipse class="cls-2" cx="59.78" cy="38.71" rx="12.97" ry="13.11"/><path class="cls-1" d="M70.12,51.12a16.3,16.3,0,0,0,0-24.82A16.07,16.07,0,0,0,67,24.24a15.85,15.85,0,0,0-7.26-1.76,16,16,0,0,0-13.72,7.8,16.38,16.38,0,0,0-.8,15.37A16.08,16.08,0,0,0,59.78,55,15.85,15.85,0,0,0,67,53.19,16.12,16.12,0,0,0,70.12,51.12ZM59.78,25.6a13.11,13.11,0,1,1-13,13.11A13.06,13.06,0,0,1,59.78,25.6Z"/><path class="cls-3" d="M45.6,3.82c-13.51,0-25,8.11-29.2,19.36h.16a15.82,15.82,0,0,1,7.26,1.76,15.89,15.89,0,0,1,7.26-1.76A16.06,16.06,0,0,1,44.81,31H46.4a16,16,0,0,1,13.72-7.8,15.85,15.85,0,0,1,7.26,1.76,15.85,15.85,0,0,1,7.26-1.76h.17C70.62,11.93,59.11,3.82,45.6,3.82Z"/><path class="cls-4" d="M16.4,23.18C20.58,11.93,32.09,3.82,45.6,3.82s25,8.11,29.21,19.36a16.47,16.47,0,0,1,3.4.41C74.07,10.38,61,.7,45.6.7S17.13,10.38,13,23.59A16.65,16.65,0,0,1,16.4,23.18Z"/><path class="cls-4" d="M45.6,32.48a16.55,16.55,0,0,1,.8-1.5H44.81A16.47,16.47,0,0,1,45.6,32.48Z"/><path class="cls-3" d="M3.59,39.41a13.06,13.06,0,0,0,13,13.12,12.56,12.56,0,0,0,4.18-.71,16.32,16.32,0,0,1,0-24.82,12.82,12.82,0,0,0-4.18-.7A13.06,13.06,0,0,0,3.59,39.41Z"/><path class="cls-4" d="M20.74,51.82a12.56,12.56,0,0,1-4.18.71,13.12,13.12,0,0,1,0-26.23,12.82,12.82,0,0,1,4.18.7,16.39,16.39,0,0,1,3.08-2.06,15.82,15.82,0,0,0-7.26-1.76H16.4a16.65,16.65,0,0,0-3.41.41,16.25,16.25,0,0,0,3.57,32.06,15.82,15.82,0,0,0,7.26-1.76A16,16,0,0,1,20.74,51.82Z"/><ellipse class="cls-3" cx="31.08" cy="39.41" rx="12.97" ry="13.11"/><path class="cls-4" d="M44.06,39.41a13,13,0,1,1-13-13.11,13.07,13.07,0,0,1,13,13.11,16.21,16.21,0,0,1,1.54-6.93,16.47,16.47,0,0,0-.79-1.5,16.06,16.06,0,0,0-13.73-7.8,15.89,15.89,0,0,0-7.26,1.76,16.31,16.31,0,0,0-3.08,26.88A15.94,15.94,0,0,0,45.6,46.35,16.22,16.22,0,0,1,44.06,39.41Z"/><path class="cls-3" d="M76.19,39.41a16.26,16.26,0,0,1-5.73,12.41,12.61,12.61,0,0,0,4.18.71,13.12,13.12,0,0,0,0-26.23,12.86,12.86,0,0,0-4.18.7A16.27,16.27,0,0,1,76.19,39.41Z"/><path class="cls-4" d="M78.21,23.59a16.47,16.47,0,0,0-3.4-.41h-.17a15.85,15.85,0,0,0-7.26,1.76A16.07,16.07,0,0,1,70.46,27a12.86,12.86,0,0,1,4.18-.7,13.12,13.12,0,0,1,0,26.23,12.61,12.61,0,0,1-4.18-.71,15.67,15.67,0,0,1-3.08,2.07,15.85,15.85,0,0,0,7.26,1.76,16.25,16.25,0,0,0,3.57-32.06Z"/><ellipse class="cls-3" cx="60.12" cy="39.41" rx="12.97" ry="13.11"/><path class="cls-4" d="M70.46,51.82a16.3,16.3,0,0,0,0-24.82,16.07,16.07,0,0,0-3.08-2.06,15.85,15.85,0,0,0-7.26-1.76A16,16,0,0,0,46.4,31a16.55,16.55,0,0,0-.8,1.5A16.24,16.24,0,0,0,60.12,55.65a15.85,15.85,0,0,0,7.26-1.76A15.67,15.67,0,0,0,70.46,51.82ZM60.12,26.3a13.12,13.12,0,1,1-13,13.11A13.06,13.06,0,0,1,60.12,26.3Z"/></g></g></svg>