<?xml version="1.0" encoding="UTF-8"?>
<svg width="672px" height="245px" viewBox="0 0 672 245" version="1.1" xmlns="http://www.w3.org/2000/svg" xmlns:xlink="http://www.w3.org/1999/xlink">
    <!-- Generator: Sketch 51.2 (57519) - http://www.bohemiancoding.com/sketch -->
    <title>Stacked</title>
    <desc>Created with Sketch.</desc>
    <defs></defs>
    <g id="Welcome" stroke="none" stroke-width="1" fill="none" fill-rule="evenodd">
        <g id="Artboard" transform="translate(-1960.000000, -927.000000)" fill="#FFFFFF">
            <g id="Stacked" transform="translate(1958.000000, 928.000000)">
                <g id="Layer-1-(4)" transform="translate(206.000000, 0.442424)" fill-rule="nonzero" stroke="#FFFFFF" stroke-width="2">
                    <path d="M130.468364,9.03218182 C91.3816364,9.03218182 58.0843636,32.4747273 45.9834545,65.0285455 L46.458,65.0285455 C53.765936,65.0288605 60.9680424,66.7751543 67.4645455,70.122 C73.9596807,66.7696682 81.1618582,65.0179337 88.4710909,65.0127273 C104.735369,65.0706377 119.781691,73.6410997 128.127273,87.6010909 L132.730364,87.6010909 C141.081756,73.6314613 156.142614,65.0595581 172.418182,65.0127273 C179.72077,65.0155612 186.91716,66.7617842 193.408909,70.1061818 C199.905412,66.7593361 207.107519,65.0130423 214.415455,65.0127273 L214.89,65.0127273 C202.836545,32.4747273 169.539273,9.03218182 130.468364,9.03218182 Z" id="Shape" opacity="0"></path>
                    <path d="M45.9834545,65.0285455 C58.0843636,32.4747273 91.3816364,9.03218182 130.468364,9.03218182 C169.555091,9.03218182 202.836545,32.4747273 214.937455,65.0285455 C218.254956,65.062325 221.559076,65.4547886 224.792182,66.1990909 C212.817818,27.9823636 175.059818,0 130.468364,0 C85.8769091,0 48.1030909,27.9823636 36.1287273,66.1990909 C39.361833,65.4547886 42.6659528,65.062325 45.9834545,65.0285455 Z" id="Shape"></path>
                    <path d="M130.468364,91.9036364 C131.160574,90.4320492 131.926079,88.9960673 132.762,87.6010909 L128.127273,87.6010909 C128.997273,88.9930909 129.709091,90.4325455 130.468364,91.9036364 Z" id="Shape"></path>
                    <path d="M8.93727273,111.976909 C8.83209463,132.814359 25.6207503,149.801195 46.458,149.940545 C50.5683671,149.926199 54.6475101,149.225849 58.5272727,147.868364 C48.0179777,138.906365 41.9645654,125.788596 41.9645654,111.976909 C41.9645654,98.1652221 48.0179777,85.0474529 58.5272727,76.0854545 C54.6356417,74.7352586 50.5455651,74.0455594 46.4263636,74.0449091 C25.6139038,74.2016064 8.84952602,91.1640443 8.93727273,111.976909 Z" id="Shape" opacity="0"></path>
                    <path d="M58.5272727,147.868364 C54.6356417,149.21856 50.5455651,149.908259 46.4263636,149.908909 C25.4596262,149.908909 8.46272727,132.91201 8.46272727,111.945273 C8.46272727,90.9785353 25.4596262,73.9816364 46.4263636,73.9816364 C50.5491471,74.0026258 54.6393233,74.7137284 58.5272727,76.0854545 C61.2547383,73.7548552 64.2432394,71.748366 67.4329091,70.1061818 C60.9459153,66.7642303 53.7552392,65.0180782 46.458,65.0127273 L45.9834545,65.0127273 C42.6659528,65.0465068 39.361833,65.4389705 36.1287273,66.1832727 C13.0367532,71.6803326 -2.33460355,93.529379 0.29291973,117.120756 C2.92044301,140.712132 22.7224223,158.643698 46.458,158.925273 C53.765936,158.924958 60.9680424,157.178664 67.4645455,153.831818 C64.2646317,152.196701 61.2654483,150.195476 58.5272727,147.868364 Z" id="Shape"></path>
                    <ellipse id="Oval" opacity="0" cx="88.4710909" cy="111.976909" rx="37.5365455" ry="37.932"></ellipse>
                    <path d="M125.991818,111.976909 C125.756554,132.652598 108.844921,149.24455 88.1685076,149.085247 C67.4920944,148.925944 50.8381223,132.075382 50.921462,111.398523 C51.0048016,90.7216641 67.7940653,74.0058977 88.4710909,74.0132727 C109.308341,74.1526235 126.096996,91.1394589 125.991818,111.976909 C125.985752,105.037604 127.514436,98.1828329 130.468364,91.9036364 C129.772364,90.4325455 128.997273,88.9930909 128.158909,87.6010909 C119.807517,73.6314613 104.746659,65.0595581 88.4710909,65.0127273 C81.1631549,65.0130423 73.9610485,66.7593361 67.4645455,70.1061818 C64.2638452,71.7462581 61.2646288,73.7528135 58.5272727,76.0854545 C48.0179777,85.0474529 41.9645654,98.1652221 41.9645654,111.976909 C41.9645654,125.788596 48.0179777,138.906365 58.5272727,147.868364 C61.2547383,150.198963 64.2432394,152.205452 67.4329091,153.847636 C73.9294122,157.194482 81.1315186,158.940776 88.4394545,158.941091 C106.467391,158.875373 122.833177,148.396338 130.436727,132.050182 C127.49371,125.768485 125.975854,118.913826 125.991818,111.976909 Z" id="Shape"></path>
                    <path d="M218.923636,111.976909 C218.945364,125.793127 212.888401,138.91944 202.362,147.868364 C206.253631,149.21856 210.343708,149.908259 214.462909,149.908909 C235.429647,149.908909 252.426545,132.91201 252.426545,111.945273 C252.426545,90.9785353 235.429647,73.9816364 214.462909,73.9816364 C210.343708,73.9822867 206.253631,74.6719858 202.362,76.0221818 C212.90178,84.9880771 218.959666,98.1395341 218.923636,111.976909 Z" id="Shape" opacity="0"></path>
                    <path d="M224.792182,66.1990909 C221.559076,65.4547886 218.254956,65.062325 214.937455,65.0285455 L214.462909,65.0285455 C207.154973,65.0288605 199.952867,66.7751543 193.456364,70.122 C196.646033,71.7641842 199.634534,73.7706734 202.362,76.1012727 C206.253631,74.7510767 210.343708,74.0613776 214.462909,74.0607273 C235.429646,74.0607276 252.426545,91.0576264 252.426545,112.024364 C252.426545,132.991101 235.429646,149.988 214.462909,149.988 C210.343708,149.98735 206.253631,149.297651 202.362,147.947455 C199.634534,150.278054 196.646033,152.284543 193.456364,153.926727 C199.952867,157.273573 207.154973,159.019867 214.462909,159.020182 C238.198487,158.738607 258.000466,140.807042 260.627989,117.215665 C263.255513,93.6242881 247.884156,71.7752417 224.792182,66.2781818 L224.792182,66.1990909 Z" id="Shape"></path>
                    <ellipse id="Oval" opacity="0" cx="172.465636" cy="111.976909" rx="37.5365455" ry="37.932"></ellipse>
                    <path d="M202.362,147.868364 C212.871295,138.906365 218.924707,125.788596 218.924707,111.976909 C218.924707,98.1652221 212.871295,85.0474529 202.362,76.0854545 C199.634534,73.7548552 196.646033,71.748366 193.456364,70.1061818 C186.950353,66.7544342 179.736813,65.0079983 172.418182,65.0127273 C156.13697,65.0540142 141.068841,73.6266387 132.714545,87.6010909 C131.878624,88.9960673 131.113119,90.4320492 130.420909,91.9036364 C124.452931,104.620441 124.452931,119.333377 130.420909,132.050182 C138.018345,148.401681 154.387951,158.883162 172.418182,158.941091 C179.72077,158.938257 186.91716,157.192034 193.408909,153.847636 C196.615125,152.208617 199.619699,150.202028 202.362,147.868364 Z M172.418182,74.0449091 C187.810722,73.8717321 201.78418,83.0106678 207.795035,97.1821145 C213.805889,111.353561 210.66415,127.75195 199.841039,138.698207 C189.017928,149.644464 172.656131,152.971521 158.417589,147.121377 C144.179047,141.271232 134.882611,127.402059 134.881636,112.008545 C134.776484,91.1649596 151.57474,74.1755726 172.418182,74.0449091 Z" id="Shape"></path>
                </g>
                <g id="ROCKWITHTHIS" transform="translate(0.000000, 194.000000)" font-family="Code-Pro-Demo, Code Pro Demo" font-size="70" font-weight="normal">
                    <text id="R">
                        <tspan x="0" y="49">R</tspan>
                    </text>
                    <text id="O">
                        <tspan x="51.59" y="49">O</tspan>
                    </text>
                    <text id="C">
                        <tspan x="113.55" y="49">C</tspan>
                    </text>
                    <text id="K">
                        <tspan x="178.85" y="49">K</tspan>
                    </text>
                    <text id="W-I">
                        <tspan x="236.4" y="49">W I</tspan>
                    </text>
                    <text id="T">
                        <tspan x="362.069999" y="49">T</tspan>
                    </text>
                    <text id="H">
                        <tspan x="418.249999" y="49">H</tspan>
                    </text>
                    <text id="T">
                        <tspan x="475.959999" y="49">T</tspan>
                    </text>
                    <text id="H">
                        <tspan x="531.039999" y="49">H</tspan>
                    </text>
                    <text id="I">
                        <tspan x="591.549999" y="49">I</tspan>
                    </text>
                    <text id="S">
                        <tspan x="636.779999" y="49">S</tspan>
                    </text>
                </g>
            </g>
        </g>
    </g>
</svg>