<?xml version="1.0" encoding="UTF-8"?>
<svg width="24px" height="17px" viewBox="0 0 24 17" version="1.1" xmlns="http://www.w3.org/2000/svg" xmlns:xlink="http://www.w3.org/1999/xlink">
    <!-- Generator: Sketch 50.2 (55047) - http://www.bohemiancoding.com/sketch -->
    <title>Group 3</title>
    <desc>Created with Sketch.</desc>
    <defs></defs>
    <g id="Welcome" stroke="none" stroke-width="1" fill="none" fill-rule="evenodd">
        <g id="Once-Selected" transform="translate(-832.000000, -325.000000)" fill="#000000" fill-rule="nonzero">
            <g id="Group-3" transform="translate(832.000000, 325.000000)">
                <g id="iconmonstr-view-4-(5)">
                    <path d="M24,2 L9,2 L9,0 L24,0 L24,2 Z M24,3 L9,3 L9,5 L24,5 L24,3 Z M24,6 L9,6 L9,8 L24,8 L24,6 Z M24,9 L0,9 L0,11 L24,11 L24,9 Z M24,12 L0,12 L0,14 L24,14 L24,12 Z M24,15 L0,15 L0,17 L24,17 L24,15 Z M8,0 L0,0 L0,8 L8,8 L8,0 Z" id="Shape"></path>
                </g>
            </g>
        </g>
    </g>
</svg>