<?xml version="1.0" encoding="UTF-8"?>
<svg width="17px" height="18px" viewBox="0 0 17 18" version="1.1" xmlns="http://www.w3.org/2000/svg" xmlns:xlink="http://www.w3.org/1999/xlink">
    <!-- Generator: Sketch 50.2 (55047) - http://www.bohemiancoding.com/sketch -->
    <g id="Welcome" stroke="none" stroke-width="1" fill="none" fill-rule="evenodd">
        <g id="initial" transform="translate(-479.000000, -97.000000)" fill="#282828" fill-rule="nonzero">
            <g id="Group-4" transform="translate(472.000000, 90.000000)">
                <g id="iconmonstr-rocket-20" transform="translate(7.000000, 7.241379)">
                    <path d="M6.06758333,13.0738793 C5.39820833,14.877931 3.46233333,16.0137069 1.41879167,16.1228879 C1.51725,14.091681 2.611625,12.0135776 4.40016667,11.3137931 L4.76141667,11.6955603 C3.67483333,12.8115517 3.30154167,13.7216379 3.24275,14.2316379 C3.74141667,14.1693534 4.66366667,13.7861207 5.709875,12.6957759 L6.06758333,13.0738793 Z M5.26291667,4.76293103 C4.0035,4.75560345 2.38566667,5.43047414 1.17866667,6.67836207 C0.71825,7.15392241 0.313083333,7.71008621 0,8.33293103 C1.08941667,7.48073276 2.2865,7.24478448 3.64579167,8.03396552 C4.04670833,6.93922414 4.58079167,5.82543103 5.26291667,4.76293103 Z M8.94908333,17.5862069 C9.55258333,17.2637931 10.0895,16.8439224 10.550625,16.3668966 C11.7604583,15.1168103 12.407875,13.4351293 12.395125,12.1300862 C11.2795,12.8848276 10.1815833,13.4285345 9.23170833,13.8125 C9.99458333,15.2193966 9.772875,16.4606897 8.94908333,17.5862069 Z M16.96175,0.0322413793 C16.6585833,0.0102586207 16.3610833,0 16.0685417,0 C9.454125,0 5.8225,5.44146552 4.66366667,9.5324569 L7.80016667,12.7771121 C11.8943333,11.4178448 17,7.8112069 17,1.05810345 L17,1.01487069 C16.9985833,0.694655172 16.9865417,0.367112069 16.96175,0.0322413793 Z M12.75,5.86206897 C11.9672917,5.86206897 11.3333333,5.20625 11.3333333,4.39655172 C11.3333333,3.58685345 11.9672917,2.93103448 12.75,2.93103448 C13.5327083,2.93103448 14.1666667,3.58685345 14.1666667,4.39655172 C14.1666667,5.20625 13.5327083,5.86206897 12.75,5.86206897 Z" id="Shape"></path>
                </g>
            </g>
        </g>
    </g>
</svg>
