<?xml version="1.0" encoding="UTF-8"?>
<svg width="23px" height="14px" viewBox="0 0 23 14" version="1.1" xmlns="http://www.w3.org/2000/svg" xmlns:xlink="http://www.w3.org/1999/xlink">
    <!-- Generator: Sketch 50.2 (55047) - http://www.bohemiancoding.com/sketch -->
    <title>iconmonstr-eye-6</title>
    <desc>Created with Sketch.</desc>
    <defs></defs>
    <g id="Welcome" stroke="none" stroke-width="1" fill="none" fill-rule="evenodd">
        <g id="Mobile-Portrait" transform="translate(-85.000000, -48.000000)" fill="#000000" fill-rule="nonzero">
            <g id="Group-2" transform="translate(81.000000, 48.000000)">
                <g id="iconmonstr-eye-6" transform="translate(4.000000, 0.000000)">
                    <path d="M11.514375,2 C16.0674167,2 19.2414167,5.012 20.622375,6.636 C19.27975,8.473 16.10575,12 11.514375,12 C7.27854167,12 3.91479167,8.464 2.43129167,6.593 C3.86208333,4.946 7.04758333,2 11.514375,2 Z M11.514375,0 C4.26075,0 0,6.551 0,6.551 C0,6.551 4.63354167,14 11.514375,14 C18.9251667,14 23,6.551 23,6.551 C23,6.551 18.8877917,0 11.514375,0 Z M11.5,3 C9.38208333,3 7.66666667,4.791 7.66666667,7 C7.66666667,9.209 9.38208333,11 11.5,11 C13.6169583,11 15.3333333,9.209 15.3333333,7 C15.3333333,4.791 13.6169583,3 11.5,3 Z M11.4961667,6.999 C10.9556667,7.563 10.0787917,7.563 9.53733333,6.999 C8.995875,6.435 8.995875,5.519 9.53733333,4.955 C10.0778333,4.391 10.9547083,4.391 11.4961667,4.955 C12.037625,5.519 12.037625,6.434 11.4961667,6.999 Z" id="Shape"></path>
                </g>
            </g>
        </g>
    </g>
</svg>